<svg xmlns="http://www.w3.org/2000/svg" viewBox="0 0 383.09 337.11"><g id="Layer_2" data-name="Layer 2"><g id="Layer_1-2" data-name="Layer 1"><path d="M383.09,315.33c-4.72-.13-9.44-.33-14.16-.36-10.1-.05-20.19,0-30.62,0v22.15H270.89v-22H0V292.63H270.66V270.31h67.43v21.82a20,20,0,0,0,2.39.33q20.2,0,40.42,0a12.8,12.8,0,0,0,2.19-.35Zm-67.5-22.52H293.48v21.83h22.11Z"/><path d="M383.09,134.87a31,31,0,0,0-3.31-.35q-71.49,0-143,0c-1,0-2,.09-3.3.15v22H166.09v-22H0V112.16H165.86V89.85h67.43v21.86c1.38.13,2.45.3,3.52.3q71.49,0,143,0a31,31,0,0,0,3.31-.35ZM210.77,112.35h-22.1v21.82h22.1Z"/><path d="M383.09,45c-4.72-.12-9.44-.32-14.16-.35-10.1,0-20.19,0-30.62,0V66.8H270.89v-22H0V22.31H270.66V0h67.43V21.82a20,20,0,0,0,2.39.33q20.2,0,40.42,0a13.86,13.86,0,0,0,2.19-.35Zm-67.68-.49V22.42H293.55v22.1Z"/><path d="M383.09,225.47c-1.48-.12-3-.35-4.43-.35q-133.25,0-266.49,0h-4.65v22.22H40c0-6.16-.16-12.23.07-18.29.12-3.12-.87-4-4-4-10.6.17-21.21.06-31.81.06H0V202.81c1.27-.06,2.59-.17,3.9-.17,10.86,0,21.71-.09,32.57.05,2.79,0,3.68-.81,3.59-3.62-.19-6.09-.06-12.19-.06-18.6h67.39v22.16h4.78q133.25,0,266.49,0c1.47,0,2.95-.23,4.43-.35Zm-320.4-.39c6.86,0,13.33.06,19.79-.07.81,0,2.29-1,2.3-1.57.16-6.8.1-13.61.1-20.57H62.69Z"/></g></g></svg>