<?xml version="1.0" encoding="utf-8"?>
<!-- Generator: Adobe Illustrator 24.3.0, SVG Export Plug-In . SVG Version: 6.00 Build 0)  -->
<svg version="1.1" id="Layer_1" xmlns="http://www.w3.org/2000/svg" xmlns:xlink="http://www.w3.org/1999/xlink" x="0px" y="0px"
	 viewBox="0 0 820.1 656.7" style="enable-background:new 0 0 820.1 656.7;" xml:space="preserve">
<style type="text/css">
	.st0{fill:#FFFFFF;}
</style>
<g id="Layer_2_1_">
	<g id="Layer_1-2">
		<path class="st0" d="M734.7,445.2c2.3,8.4-0.1,16.1-3.1,23.8c-2.9,7.6-6.4,15-10.3,22.2c-5.4,9.8-11.8,19.1-19,27.6
			c-6.6,7.7-13.5,14.9-25.1,13.5c-2.4-0.3-4.3-2-6.8-1.6c-4.2-3-8.8-5.7-13.5-7.9c-5.5-4.1-5.5-4.1-10.4-0.1l-8.6,5.2
			c-1.8,1-3.7,1.9-5.7,2.7c-3.1,1-3.8,2.9-3.7,6c0.2,6.6,0,13.1-0.1,19.7c-3.1,11.1-10.2,17.6-21.7,19.2c-0.5,0.1-1,0.3-1.4,0.6
			c-4.3,0.6-8.6,1.2-12.9,1.6c-6.5,0.6-13.1,1-19.7,1.5c-9.7,0.6-19.1-1.5-28.6-2.7l-3.9-0.5c-11.5-2.1-19.8-7.9-22.9-19.8
			c-0.1-4.8-0.7-9.8-0.1-14.5c0.9-7-1.3-11.4-8.2-13.2c-0.1,0-0.3-0.1-0.4-0.1c-3.9-2.5-7.8-4.8-11.6-7.5c-1.4-1.2-3.5-1.3-5-0.2
			c-5.9,3.5-11.8,6.8-17.8,10.2c-11.9,3.4-21.2-0.5-29-9.8c-7.8-9.4-14.8-19.4-21.1-29.9c-5.1-10.1-9.5-20.4-13.3-31
			c-0.1-0.5-0.2-1-0.3-1.5c-0.9-3.5-0.3-7.1-0.6-10.6c2.6-6.9,6.2-13,13.1-16.5c2.8-1.4,5.4-3.2,8.2-4.8c0.9-0.5,1.8-1,2.8-1.4
			c4-1.3,4.9-4,4.3-7.9c-0.8-4.6-0.8-9.2,0-13.8c1.1-5.7-1-9-6.2-10.7c-0.2-0.1-0.5-0.1-0.8-0.2c-1.7-1-3.2-2.2-5-3.1
			c-7.5-3.9-13.4-9-15.8-17.5c-0.8-3.7-0.8-7.5,0-11.2c0.1-0.5,0.1-1,0.2-1.6c3.6-10.3,7.9-20.3,12.7-30.1
			c6.7-11.1,13.8-21.8,22.3-31.7c8-9.3,17.4-12.8,29.3-8.9c4,2.3,8.2,4.3,11.9,7c5,3.7,9.5,4.7,14.4-0.2c1.7-1.7,4.2-2.7,6.3-4.1
			c2.5-1.2,4.9-2.4,7.4-3.6c1.2-0.6,2.1-1.3,2.1-2.9c-0.1-7.4-0.1-14.9-0.1-22.4c1.8-4.1,3.3-8.3,6.5-11.7
			c4.6-4.8,10.5-6.3,16.6-7.5c10.8-1.9,21.6-2.9,32.6-3.2c10.9,0.2,21.8,1.3,32.6,3.2c11.6,1.8,19.8,7.5,23,19.2
			c0.1,7.1,0.2,14.2,0.2,21.3c0,1.6-0.1,3.1,1.8,3.9c2.5,1.1,5,2.3,7.5,3.4l7.8,4.8c5.7,4.4,5.7,4.4,10.5,0.8l14.3-7.9
			c2.6-0.5,4.9-1.5,7.6-1.7c8-0.6,14.4,2.6,20,8c1.1,1.8,2.5,3.4,4.1,4.8c7.3,9,13.9,18.6,19.7,28.6c4.2,8.4,8,17.1,11.3,25.9
			c2.4,6.6,3.2,13.2,1.5,20c-2.8,5.7-6.6,10.3-12.3,13.3c-3.2,1.7-6.3,3.7-9.4,5.6c-4.4,1.2-6.2,3.6-5.6,8.6
			c0.7,5.2,0.6,10.5-0.1,15.7c-0.6,4.1,0.9,6.1,4.3,7.5c0.7,0.3,1.4,0.6,2.2,0.9c1.2,0.8,2.4,1.6,3.6,2.3
			C724.9,432.4,731.4,437.1,734.7,445.2z M673.6,393.6c-0.3-4.3-1-8.6-2.2-12.8c0-0.4,0-0.9,0-1.3c9.1-5.3,18.3-10.6,27.4-15.8
			c1.6-0.9,2.7-1.7,1.4-3.5c-4.1-11.4-10-22.1-17.4-31.6c-1.2-1.7-2.5-3.4-3.7-5.1c-0.7-1-1.5-1.2-2.6-0.5c-2.5,1.7-5.1,3.2-7.7,4.8
			c-6,3.4-12.1,6.7-18,10.2c-1.8,1.1-3.1,1-4.8-0.4c-2.6-2.1-4.6-5.1-8.1-6c-0.7-1.8-2.3-2.5-3.9-3.1c-0.2-1.5-1.6-2.1-2.6-2.8
			c-7.9-5.6-16.7-10-26.1-12.9c-1.9-0.9-3.9-1.6-5.9-2.3c-2.5-0.7-3.7-1.8-3.5-4.7c0.3-3.3,0-6.6-0.1-9.9c0.1-6.3,0.1-12.6,0.2-18.9
			c0-1.8-0.7-2.4-2.5-2.6c-6.9-0.9-13.8-1.8-20.8-1.4c-7-0.4-14,0.6-20.9,1.4c-1.8,0.2-2.2,0.9-2.2,2.5c0.1,6.1,0.1,12.1,0.2,18.2
			c-0.2,1-0.2,2.1-0.1,3.1c1.4,7.9-0.9,13.3-9.5,14.6c-9.8,3.3-19.2,7.4-27.3,14.2c-2,1.1-3.9,2.5-5.4,4.3c-2.7,2.1-5.4,4.2-7.9,6.4
			c-1.3,1.1-2.3,1.4-3.8,0.5c-7.6-4.5-15.4-8.7-22.9-13.3c-5.2-3.2-5.7-3.2-8.9,2.5c-7.9,9.8-14,20.8-18.3,32.7
			c-1.7,1.9-0.2,2.7,1.3,3.5c9.1,5.2,18.2,10.5,27.3,15.7v3.2c-4.7,17.7-4.7,36.3,0,54c0.1,1.1,0.1,2.1,0.2,3.2
			c-9.1,5.2-18.2,10.4-27.2,15.7c-1.2,0.7-3.4,1.1-1.7,3.3c4.2,11.7,10.3,22.7,18,32.5c0.6,0.7,1.1,1.5,1.5,2.3
			c1.7,3.4,3.7,3.4,6.8,1.5c7.4-4.6,15.1-8.6,22.4-13.2c2.8-1.8,4.6-1.3,6.8,0.8c2.2,2.1,4.5,3.7,6.7,5.5c1.2,1.4,2.8,2.6,4.4,3.4
			c8.2,7.1,17.9,11.5,28.1,14.9c2,0.9,4.1,1.7,6.2,2.4c2.5,0.7,3.6,1.8,3.4,4.6c-0.3,3.5,0,7,0.1,10.5c0,5.9,0,11.8-0.2,17.7
			c-0.1,2.4,0.8,3.1,3,3.4c6.6,1,13.3,1.4,20,1.3c6.9,0.2,13.9-0.3,20.7-1.4c1.8-0.3,2.8-0.8,2.7-2.9c-0.2-6-0.2-12.1-0.2-18.1
			c0.2-0.9,0.2-1.8,0.2-2.7c-1.3-7.7,0.5-13.4,9.3-14.7c10.1-3.1,19.5-7.6,27.8-14.3c2.2-1.2,4.1-2.8,5.8-4.6c2.4-1.9,4.8-3.6,7-5.7
			c1.6-1.5,2.8-1.7,4.8-0.5c7.4,4.5,15,8.7,22.4,13.1c5.2,3,5.2,3.1,8.5-2c8.1-10,14.5-21.4,18.8-33.5c1.6-2-0.3-2.4-1.4-3.1
			c-8.3-4.8-16.5-9.7-24.9-14.3c-2-1.1-2.8-2.3-2.2-4.6c0.8-3.4,1.1-7,1.6-10.5c0.7-1.7,0.2-3.5,0.6-5.3c0.8-4.5,1.1-9,0.9-13.5
			C674.9,402.8,674,398.2,673.6,393.6L673.6,393.6z"/>
		<path class="st0" d="M89.7,458.7c3.4-11.1,8.3-21.4,13.9-31.6c4.1-6.4,8.7-12.5,13.3-18.6l15-15c6.1-4.6,12.1-9.3,18.6-13.3
			c10-5.8,20.7-10.5,31.7-14.1l19.7-4.3l12.7-1c15.3-0.9,29.7,3.1,44.1,7.7c6.9,2.2,13.8,4.4,21,5.3c10.7,2.4,21.6,3.4,32.6,3
			c4.3,0,8.6,0.1,12.9-0.3c6.6-0.6,13.2-1.5,19.7-2.8c8.3-1,16.2-3.6,24.1-6c5.2-1.6,5.1-1.6,4.1,3.5c-1.5,7.4-2.4,14.8-2.7,22.3
			c-0.1,0.6-0.2,1.3-0.2,1.9c0.5,4-1.1,5.8-5.2,6.5c-6.8,1.2-13.5,3-20.2,4.6c-10.7,1.7-21.6,2.7-32.5,3c-10.9-0.1-21.8-1-32.6-2.4
			c-10.6-1.8-21-4.7-31.4-7.6c-10.9-3.8-21.9-7.4-33.7-5.9c-11.3,0.4-22.3,2.9-32.7,7.4c-27.2,11.1-46.2,30.4-57.5,57.4
			c-4.4,10.4-6.9,21.4-7.3,32.7c-0.6,10.9-0.4,21.7-0.2,32.6c-0.1,5.1-0.2,10.3-0.1,15.4c0.1,10,6.5,16.6,16.5,17
			c5.4,0.2,10.8-0.1,16.2-0.1H410l22.3,0.2l10.1,9.1c10,8.7,21,16.3,32.7,22.6c-0.8,1.6-2.3,0.7-3.4,0.7
			c-112.1,0.1-224.3-0.1-336.4,0.2C109,589,88.9,571.1,85,548.3c-0.4-2.3-0.6-4.7-0.5-7.1c0-16.8,0-33.6,0.1-50.3
			c0-3.8,0.5-7.6,0.7-11.5L89.7,458.7z"/>
		<path class="st0" d="M248.3,84.2c13-6.6,26.3-12.1,40.8-14.6c17.7-3.1,35.9-2.6,53.5,1.5c0.8,0.1,1.6,0.2,2.4,0.3
			c11.3,3.5,22.2,8,32.6,13.5c7.3,4.6,14.4,9.7,21.1,15.2l11.3,11.2c5.5,6.7,10.6,13.8,15.2,21.2c2.9,5.7,5.9,11.4,8.3,17.4
			c6.2,15.3,8.9,31.3,9.3,47.7c-0.1,23.2-6.1,44.8-17.2,65c-4.7,7.9-10.2,15.4-16.2,22.4l-10.4,10.2c-6.6,6-14.1,10.8-21.4,15.7
			c-10.4,5.5-21.3,10-32.6,13.4l-19.8,3.5c-4.2,0.7-8.5,1-12.7,0.7c-6.8-0.9-13.7-0.8-20.5-1.8c-15.9-2.5-30.5-8.2-44.6-15.6
			c-7.7-4.8-15-10.2-22-15.9l-10.4-10.5c-5.8-7-11-14.3-15.8-22c-5-9.3-9.1-19-12.1-29.1c-3.4-11.7-4.8-23.8-5.1-35.9
			c0.2-22.9,6.2-44.2,17.1-64.2c4.8-7.7,10.1-15.1,15.9-22.1l10.4-10.3C232.4,94.8,240.1,89.2,248.3,84.2z M377.4,125.5
			c-9.2-8.8-20.3-15.4-32.5-19.3c-10.4-4.4-21.4-5.7-32.6-5.9c-11.2,0.1-22.2,1.5-32.6,5.8c-28.9,10.5-48.6,30.2-59.2,59
			c-4,10.4-6,21.4-5.7,32.6c-0.3,11.1,1.6,22.2,5.6,32.6c4,12.5,10.8,23.8,19.9,33.3c1.9,2.7,4.3,5.1,7.1,7
			c9.5,8.7,20.2,15.4,32.6,19.2c10.3,4.1,21.4,6,32.6,5.7c11.1,0.4,22.2-1.6,32.6-5.7c4.4-0.8,8.2-3,12-5
			c22.8-12.1,38.8-30.1,47.4-54.5c3.9-10.4,5.8-21.4,5.6-32.6c0-11.2-1.7-22.2-5.9-32.6c-4-12.1-10.7-23.2-19.5-32.4
			C382.6,129.8,380.2,127.4,377.4,125.5z"/>
	</g>
</g>
</svg>
