<?xml version="1.0" encoding="utf-8"?>
<!-- Generator: Adobe Illustrator 24.3.0, SVG Export Plug-In . SVG Version: 6.00 Build 0)  -->
<svg version="1.1" id="Layer_1" xmlns="http://www.w3.org/2000/svg" xmlns:xlink="http://www.w3.org/1999/xlink" x="0px" y="0px"
	 viewBox="0 0 199.7 185.1" style="enable-background:new 0 0 199.7 185.1;" xml:space="preserve">
<g>
	<path d="M47.8,60.6c0,10.8,0,21.7,0,32.5c0,1.6-0.3,3.3-0.7,4.9c-0.9,3.5-1.9,7-2.9,10.5c-0.3,1.2-0.8,2.1-2.2,2.1
		c-1.3,0-1.8-1-2.1-2.1c-1.1-4-2.3-8-3.4-12.1c-0.2-0.7-0.3-1.4-0.3-2.1c0-22.5,0-45.1,0-67.6c0-2.6,0.6-3.1,3.1-3.2
		c1.7,0,3.4,0,5.2,0c2.8,0,3.3,0.5,3.3,3.3C47.8,38.1,47.8,49.4,47.8,60.6z M43.5,93.3c0-21.9,0-43.7,0-65.5c-1.1,0-2,0-3,0
		c0,21.9,0,43.7,0,65.5C41.6,93.3,42.6,93.3,43.5,93.3z M41.8,100.4c0.1,0,0.2,0,0.3,0.1c0.3-0.9,0.6-1.9,0.9-2.9c-0.8,0-1.3,0-2,0
		C41.3,98.5,41.6,99.4,41.8,100.4z"/>
	<path d="M19.5,73.8c0-10.9,0-21.8,0-32.7c0-1.6,0.3-3.2,0.7-4.7c0.9-3.5,1.9-7,2.9-10.5c0.3-1.2,0.8-2.1,2.2-2.1
		c1.3,0,1.8,1,2.1,2.1c1.1,4.1,2.3,8.1,3.4,12.2C31,38.7,31,39.4,31,40c0,22.5,0,45.1,0,67.6c0,2.6-0.6,3.1-3.1,3.2
		c-1.9,0-3.8,0-5.6,0c-2.2,0-2.8-0.7-2.8-2.9C19.5,96.4,19.5,85.1,19.5,73.8z M23.7,106.5c1.1,0,2.1,0,3.1,0c0-21.8,0-43.6,0-65.4
		c-1.1,0-2.1,0-3.1,0C23.7,62.9,23.7,84.7,23.7,106.5z M24.3,36.8c0.7,0,1.3,0,2,0c-0.3-1.1-0.6-2-0.9-2.9c-0.1,0-0.2,0-0.3,0.1
		C24.8,34.9,24.6,35.7,24.3,36.8z"/>
	<path d="M177.2,58.6c-4.8,0.2-9.6,0-14.3,0c-0.6,0-1.1,0-1.8,0c0-4.2-0.1-8.2,0-12.1c0-1.5-0.4-2.5-1.5-3.5
		c-9.2-9.2-18.4-18.3-27.6-27.6c-1.1-1.1-2.3-1.6-3.8-1.6c-23.7,0-47.4,0-71.1,0c-2.9,0-3.4,0.5-3.4,3.5c0,31.1,0,62.2,0,93.3
		c0,0.7,0,1.3,0,2.1c-0.8,0-1.4,0-2,0c-9.6,0-19.2,0-28.8,0c-2.8,0-3.3,0.5-3.3,3.3c0,18.5,0,37.1,0,55.6c0,2.7,0.6,3.3,3.3,3.3
		c37.4,0,74.9,0,112.3,0c2.7,0,3.3-0.6,3.3-3.3c0-4.1,0-8.3,0-12.6c0.7,0,1.3,0,1.9,0c5.7,0,11.5,0,17.2,0c3.1,0,3.5-0.4,3.5-3.6
		c0-20.3,0-40.6,0-60.9c0-0.6,0-1.3,0-2c0.8,0,1.3,0,1.9,0c4.8,0,9.7-0.1,14.5,0c3.4,0.1,5.8-1,7.1-4.3c0-8.5,0-17,0-25.5
		C183.1,59.6,180.6,58.5,177.2,58.6z M131.8,21.5c7.2,7.2,14.4,14.4,21.7,21.7c-7.2,0-14.4,0-21.7,0
		C131.8,35.9,131.8,28.6,131.8,21.5z M134.2,170.7c-36.8,0-73.6,0-110.5,0c0-17.9,0-35.7,0-53.7c36.8,0,73.5,0,110.5,0
		C134.2,135,134.2,152.8,134.2,170.7z M156.7,154.8c-6.1,0-12.1,0-18.3,0c0-0.7,0-1.3,0-1.9c0-12.3,0-24.6,0-36.9
		c0-2.6-0.6-3.2-3.2-3.2c-25.1,0-50.3,0-75.4,0c-0.6,0-1.3,0-2,0c0-31.6,0-63.1,0-94.6c23.2,0,46.3,0,69.7,0c0,0.5,0,1.1,0,1.7
		c0,8.1,0,16.2,0,24.3c0,2.7,0.6,3.3,3.3,3.3c8,0,16,0,24,0c0.6,0,1.2,0,1.9,0c0,3.8,0,7.4,0,11.3c-0.6,0-1.1,0-1.7,0
		c-6.7,0-13.3,0-20,0c-4.4,0-6.5,2.2-6.5,6.5c0,6.9,0,13.9,0,20.8c0,4.4,2.1,6.5,6.5,6.5c6.6,0,13.2,0,19.8,0c0.6,0,1.2,0,1.9,0
		C156.7,113.3,156.7,134,156.7,154.8z M180.4,86c0,2.1-0.2,2.3-2.3,2.3c-7.2,0-14.4,0-21.6,0c-7.1,0-14.3,0-21.4,0
		c-2.1,0-2.4-0.3-2.4-2.4c0-6.9,0-13.9,0-20.8c0-2,0.4-2.3,2.3-2.3c14.3,0,28.7,0,43,0c2.1,0,2.4,0.3,2.4,2.4
		C180.4,72.2,180.4,79.1,180.4,86z"/>
	<path d="M73.7,24.2c5.8,0,10.6,4.9,10.5,10.7c-0.1,5.7-4.8,10.4-10.5,10.4c-5.8,0-10.6-4.8-10.5-10.6C63.2,28.9,68,24.1,73.7,24.2z
		 M80.1,34.7c0-3.6-2.9-6.4-6.5-6.3c-3.5,0-6.3,2.9-6.3,6.4s3,6.5,6.5,6.5C77.2,41.2,80.1,38.2,80.1,34.7z"/>
	<path d="M44.4,133.3c5.8,0,10.6,4.7,10.6,10.5c0,5.7-4.6,10.5-10.4,10.5c-5.8,0.1-10.6-4.6-10.6-10.4
		C33.9,138.1,38.5,133.4,44.4,133.3z M50.8,143.8c0-3.6-2.9-6.5-6.5-6.4c-3.5,0-6.3,2.9-6.4,6.4c0,3.6,2.8,6.5,6.4,6.5
		C48,150.2,50.8,147.4,50.8,143.8z"/>
	<path d="M109.8,131.8c3.3,0,6.5,0,9.8,0c1.8,0,2.7,0.7,2.7,2s-0.9,2.1-2.7,2.1c-6.7,0-13.3,0-20,0c-1.8,0-2.7-0.8-2.6-2.1
		c0-1.3,0.9-2,2.6-2C103.1,131.8,106.5,131.8,109.8,131.8z"/>
	<path d="M109.7,142.1c3.4,0,6.8,0,10.1,0c1.7,0,2.5,0.7,2.5,2c0,1.5-1.1,2-2.4,2c-6.8,0-13.6,0-20.4,0c-1.6,0-2.5-0.8-2.4-2.1
		c0.1-1.5,1.1-1.9,2.5-1.9C103,142.1,106.3,142.1,109.7,142.1z"/>
	<path d="M109.5,156.3c-3.2,0-6.4,0-9.7,0c-1.9,0-2.7-0.6-2.8-2c0-1.4,0.9-2.1,2.8-2.1c6.6,0,13.2,0,19.8,0c1.8,0,2.7,0.7,2.7,2.1
		c0,1.3-0.9,2-2.7,2C116.3,156.3,112.9,156.3,109.5,156.3z"/>
	<path d="M145.1,86.1c-5.9-0.2-10.4-4.9-10.3-10.7c0.1-5.8,5-10.5,10.8-10.3s10.4,5,10.2,10.9C155.7,81.7,150.9,86.3,145.1,86.1z
		 M145.4,69.2c-3.6,0-6.4,2.8-6.4,6.4s3,6.5,6.5,6.4s6.3-2.9,6.3-6.4S148.9,69.2,145.4,69.2z"/>
	<path d="M166.7,74.1c-2,0-4,0-6,0c-1.3,0-2.3-0.5-2.5-1.9c-0.1-1.3,0.8-2.2,2.4-2.2c4.1,0,8.3,0,12.4,0c1.6,0,2.5,0.8,2.5,2.1
		c0,1.3-0.9,2-2.6,2C170.9,74.1,168.8,74.1,166.7,74.1z"/>
	<path d="M166.9,81.2c-2.1,0-4.2,0-6.3,0c-1.5,0-2.4-0.8-2.4-2c0-1.4,1-2,2.2-2c4.3,0,8.6,0,12.9,0c1.3,0,2.2,0.7,2.2,2.1
		c0,1.2-0.8,2-2.4,2C171.1,81.2,169,81.2,166.9,81.2z"/>
	<path d="M76.5,34.7c0,1.5-1.2,2.8-2.7,2.8c-1.6,0.1-2.9-1.2-2.9-2.8c0-1.5,1.3-2.9,2.8-2.8C75.2,31.9,76.5,33.2,76.5,34.7z"/>
	<path d="M44.5,146.6c-1.5,0-2.8-1.2-2.8-2.7c-0.1-1.6,1.1-2.9,2.7-2.9c1.5,0,2.8,1.1,2.8,2.7C47.3,145.3,46,146.6,44.5,146.6z"/>
	<path d="M145.4,78.4c-1.6,0-2.9-1.2-2.9-2.8c0-1.5,1.2-2.7,2.7-2.8c1.6,0,2.9,1.2,2.8,2.8C148.1,77.2,147,78.4,145.4,78.4z"/>
</g>
</svg>
