<?xml version="1.0" encoding="utf-8"?>
<!-- Generator: Adobe Illustrator 24.3.0, SVG Export Plug-In . SVG Version: 6.00 Build 0)  -->
<svg version="1.1" id="Layer_1" xmlns="http://www.w3.org/2000/svg" xmlns:xlink="http://www.w3.org/1999/xlink" x="0px" y="0px"
	 viewBox="0 0 199.7 185.1" style="enable-background:new 0 0 199.7 185.1;" xml:space="preserve">
<g>
	<path d="M104.2,96.8c2.7,0,5.1,0,7.7,0c0-4.3,0-8.5,0-12.9c-0.8-0.1-1.5-0.1-2.4-0.2c0-1.7,0-3.3,0-5.1c0.6,0,1.1,0,1.7,0
		c5.3,0,10.6,0,16,0c5,0,8.3-3.3,8.3-8.2c0-14.5,0-29,0-43.5c0-4.9-3.3-8.2-8.2-8.2c-18.9,0-37.8,0-56.6,0c-4.8,0-8.1,3.3-8.1,8.1
		c0,11.4,0,22.8,0,34.2c0,0.6,0,1.2,0,1.9c-1.7,0-3.4,0-5.2,0c0-0.6,0-1.2,0-1.7c0-11.2,0-22.5,0-33.7c0-8.5,5.5-13.9,13.9-13.9
		c18.5,0,37,0,55.5,0c8.4,0,13.9,5.5,13.9,13.8c0,14.2,0,28.4,0,42.6c0,1.1-0.1,2.2-0.2,3.4c1.6,0,3.3,0,4.9,0c2,0,3,1,3,3
		c0,1.2,0,2.4,0,3.8c3.4-1.1,6.6-2.2,9.8-3.3c0.8-0.3,1.5-0.6,2.3-0.8c1.9-0.5,3.5,0.5,3.5,2.5c0,6.8,0,13.7,0,20.5
		c0,2.2-1.6,3.3-3.8,2.6c-3.4-1.1-6.8-2.2-10.2-3.3c-0.5-0.1-0.9-0.3-1.6-0.5c0,1.2,0,2.3,0,3.3c0,2.5-0.9,3.4-3.4,3.4
		c-0.5,0-1.1,0-1.7,0c0,16.5,0,32.9,0,49.5c1.5,0,2.9,0,4.3,0c2.6,0,3.5,0.9,3.5,3.5c0,1.3,0,2.6,0,3.9c0,4.9-3.3,8.2-8.2,8.2
		c-14.2,0-28.4,0-42.6,0c-14.9,0-29.7,0-44.6,0c-5.6,0-8.7-3.1-8.8-8.8c0-1.2,0-2.5,0-3.7c0-2.1,0.9-3.1,3.1-3.1c1.5,0,2.9,0,4.4,0
		c0,0,0.1,0,0.3-0.1c0-5.9,0-11.9,0-18c1.8,0,3.4,0,5.2,0c0,6,0,12,0,18c26.1,0,52.1,0,78.2,0c0-0.6,0-1.2,0-1.8
		c0-15.5,0-30.9,0-46.4c0-3.1-0.8-3.8-3.8-3.8c-9.4,0-18.8,0-28.2,0c-0.5,0-1.1,0-1.8,0c0,0.6-0.1,1.1-0.1,1.6c0,4.1-0.2,8.3,0,12.4
		c0.5,8.7-6,15.2-14.6,14.7c-3.6-0.2-7.1,0-11,0c0.4,2.5,0.8,4.9,1.2,7.3c0.2,1.5,0.5,3,0.8,4.5c0.3,1.4,0.1,2.5-1.1,3.3
		s-2.4,0.4-3.5-0.4c-6.1-4.6-12.2-9.2-18.4-13.7c-0.7-0.5-1.8-0.9-2.6-0.9c-6.8-0.1-13.7,0-20.5,0c-8,0-13.6-5.6-13.6-13.6
		c0-11.8,0-23.5,0-35.3c0-7.9,5.6-13.5,13.5-13.5c18.8,0,37.5,0,56.3,0c7.9,0,13.5,5.6,13.5,13.5c0,4.4,0,8.9,0,13.3
		C104.2,95.6,104.2,96.2,104.2,96.8z M74.5,137.7c-0.5-3-0.9-5.6-1.3-8.2c-0.5-2.8,0.5-3.9,3.4-3.9c4.6,0,9.1,0,13.7,0
		c5.7,0,8.8-3.1,8.8-8.7c0-11.6,0-23.1,0-34.7c0-5.5-3.1-8.7-8.6-8.7c-18.6,0-37.1,0-55.7,0c-5.4,0-8.6,3.2-8.6,8.5
		c0,11.7,0,23.3,0,35c0,5.4,3.2,8.5,8.6,8.6c7.2,0,14.4,0,21.6,0c1.1,0,2.4,0.4,3.3,1.1c4,2.8,7.8,5.8,11.7,8.7
		C72.3,136.1,73.3,136.8,74.5,137.7z M52.2,159.4c-0.4,4.5,0.2,5.2,4.5,5.2c28.4,0,56.7,0,85.1,0c0.5,0,1.1,0,1.6,0
		c1.4-0.1,2.2-0.9,2.4-2.2c0.1-0.9,0-1.9,0-2.9C114.6,159.4,83.5,159.4,52.2,159.4z M143.2,99.9c0-7.5,0-14.3,0-21.3
		c-1.5,0-2.9,0-4.3,0c-0.4,0-1,0.3-1.2,0.6c-3,3.4-6.7,4.7-11.2,4.6c-3-0.1-6,0-9.1,0c0,4.4,0,8.7,0,13c0.7,0,1.3,0,1.9,0
		c5.3,0,10.6-0.1,15.9,0.1c1.7,0.1,3.4,1,5,1.6C141.1,98.9,142,99.4,143.2,99.9z M158.9,82.3c-3.3,1.1-6.5,2.1-9.6,3.2
		c-0.3,0.1-0.7,0.6-0.7,0.9c-0.1,1.8,0,3.6,0,5.4c0,0.3,0.2,0.7,0.5,0.7c3.3,1.1,6.5,2.2,9.9,3.3C158.9,91.2,158.9,86.8,158.9,82.3z
		"/>
	<path d="M106.8,73.4c0-10.5,0-20.8,0-31.3c-3.2,0-6.4,0-9.5,0c-2.6,0-3.5-0.8-3.5-3.5c0-3.1,0-6.2,0-9.4c-5.2,0-10.3,0-15.6,0
		c0,11.2,0,22.4,0,33.7c-1.8,0-3.4,0-5.2,0c0-0.5-0.1-1-0.1-1.6c0-11.3,0-22.6,0-33.8c0-2.8,0.8-3.6,3.6-3.6c15,0,30,0,44.9,0
		c2.8,0,3.6,0.8,3.6,3.6c0,14.1,0,28.2,0,42.3c0,2.8-0.8,3.6-3.6,3.6C116.7,73.4,111.9,73.4,106.8,73.4z M119.8,68.1
		c0-13,0-26,0-38.9c-5.6,0-11.1,0-16.2,0c2.2,2.4,4.5,5,7,7.5c1,1,1.5,2.1,1.5,3.6c-0.1,8.7,0,17.3,0,26c0,0.6,0,1.2,0,1.8
		C114.7,68.1,117.2,68.1,119.8,68.1z M102.4,36.9c-1-1.1-2.1-2.4-3.2-3.6c0,1.2,0,2.4,0,3.6C100.4,36.9,101.5,36.9,102.4,36.9z"/>
	<path d="M146,60.4c0-1.8,0-3.4,0-5.2c0.5,0,1.1,0,1.6,0c5.4,0,10.7,0,16.1,0c7.9,0,13.5,5.6,13.5,13.5c0,13.6,0,27.1,0,40.7
		c0,7.9-5.6,13.5-13.6,13.5c-4.5,0-9,0-13.5,0c-0.5,0-0.9,0-1.5,0c0-1.8,0-3.4,0-5.2c0.6,0,1.1,0,1.7,0c4.4,0,8.9,0,13.3,0
		c5,0,8.3-3.3,8.3-8.2c0-13.6,0-27.2,0-40.8c0-4.9-3.3-8.2-8.3-8.2c-5.3,0-10.5,0-15.8,0C147.3,60.4,146.7,60.4,146,60.4z"/>
	<path d="M86.1,148.8c0-1.7,0-3.3,0-5c10.4,0,20.7,0,31.1,0c0,1.7,0,3.3,0,5C106.9,148.8,96.5,148.8,86.1,148.8z"/>
	<path d="M109.5,117.6c0-1.7,0-3.3,0-5c7.8,0,15.4,0,23.2,0c0,1.6,0,3.3,0,5C125.1,117.6,117.4,117.6,109.5,117.6z"/>
	<path d="M112.1,138.4c0-1.7,0-3.3,0-5c6.9,0,13.7,0,20.6,0c0,1.6,0,3.2,0,5C126,138.4,119.1,138.4,112.1,138.4z"/>
	<path d="M101.6,47.5c0,1.7,0,3.3,0,5c-6,0-12,0-18,0c0-1.6,0-3.3,0-5C89.5,47.5,95.5,47.5,101.6,47.5z"/>
	<path d="M83.5,62.9c0-1.7,0-3.3,0-5c6,0,12,0,18,0c0,1.6,0,3.2,0,5C95.6,62.9,89.6,62.9,83.5,62.9z"/>
	<path d="M119.8,123c0,1.7,0,3.3,0,5c-4.3,0-8.6,0-12.9,0c0-1.7,0-3.3,0-5C111.2,123,115.4,123,119.8,123z"/>
	<path d="M86.1,133.4c3.4,0,6.8,0,10.2,0c0,1.7,0,3.3,0,5c-3.4,0-6.8,0-10.2,0C86.1,136.8,86.1,135.2,86.1,133.4z"/>
	<path d="M122.5,148.9c0-1.7,0-3.3,0-5c3.4,0,6.8,0,10.3,0c0,1.6,0,3.3,0,5C129.4,148.9,126,148.9,122.5,148.9z"/>
	<path d="M132.8,123c0,1.7,0,3.3,0,5c-2.5,0-5,0-7.6,0c0-1.6,0-3.2,0-5C127.7,123,130.2,123,132.8,123z"/>
	<path d="M88.5,42.1c-1.7,0-3.3,0-5,0c0-1.6,0-3.3,0-5c1.6,0,3.3,0,5,0C88.5,38.7,88.5,40.4,88.5,42.1z"/>
	<path d="M101.7,138.4c0-1.7,0-3.3,0-4.9c1.7,0,3.3,0,5.1,0c0,1.6,0,3.3,0,4.9C105,138.4,103.4,138.4,101.7,138.4z"/>
	<path d="M65.3,143.8c1.7,0,3.3,0,5,0c0,1.7,0,3.3,0,5c-1.6,0-3.3,0-5,0C65.3,147.2,65.3,145.6,65.3,143.8z"/>
	<path d="M62.5,120.3c-5.9,0-11.7,0-17.6,0c-5.2,0-8.4-3.3-8.4-8.5c0-6.5,0-13,0-19.5c0-5.2,3.2-8.4,8.4-8.5c0.4,0,0.8-0.1,1.1,0
		c3.1,0.5,5.4-0.2,6.4-3.6c0.2-0.7,1.6-1.5,2.5-1.5c5-0.1,10.1-0.1,15.1-0.1c1.4,0,2.5,0.7,2.8,2c0.8,2.7,2.5,3.6,5.3,3.3
		c7.1-0.8,10.8,3.2,10.4,10.4c-0.3,5.9-0.1,11.8-0.1,17.7c0,5.1-3.3,8.3-8.4,8.3C74.3,120.3,68.4,120.3,62.5,120.3z M62.6,115.1
		c5.9,0,11.8,0,17.7,0c2,0,3.1-0.9,3.1-2.8c0-6.8,0-13.7,0-20.5c0-1.7-1-2.7-2.8-2.8c-1.5,0-3.1-0.2-4.6,0c-3.5,0.5-5.8-0.7-6.8-4.2
		c-0.3-1-1-1.1-1.9-1.1c-2.4,0.1-4.9,0.2-7.3,0c-2.8-0.3-4.6,0.4-5.4,3.3c-0.4,1.5-1.7,2-3.2,2c-2.1-0.1-4.2,0-6.3,0
		c-2.6,0-3.4,0.9-3.4,3.4c0,6.4,0,12.8,0,19.2c0,2.6,0.9,3.4,3.4,3.4C50.9,115.1,56.8,115.1,62.6,115.1z"/>
	<path d="M73,102.1c0,5.8-4.7,10.5-10.4,10.4c-5.8,0-10.4-4.7-10.4-10.5c0-5.7,4.7-10.3,10.4-10.3C68.3,91.6,73,96.3,73,102.1z
		 M62.5,96.9c-2.8,0-5.1,2.4-5.1,5.3c0,2.8,2.4,5.2,5.2,5.1c2.9,0,5.3-2.4,5.2-5.3C67.7,99.1,65.3,96.8,62.5,96.9z"/>
</g>
</svg>
