<?xml version="1.0" encoding="utf-8"?>
<!-- Generator: Adobe Illustrator 24.3.0, SVG Export Plug-In . SVG Version: 6.00 Build 0)  -->
<svg version="1.1" id="Layer_1" xmlns="http://www.w3.org/2000/svg" xmlns:xlink="http://www.w3.org/1999/xlink" x="0px" y="0px"
	 viewBox="0 0 512 512" style="enable-background:new 0 0 512 512;" xml:space="preserve">
<style type="text/css">
	.st0{fill:#FFFFFF;}
</style>
<g id="Layer_2_1_">
	<g id="Layer_1-2">
		<path class="st0" d="M0,220c3.9-9.1,10.8-12.2,20.6-12.1c51,0.3,102,0.1,153,0.1h6.2c-1.8-1.9-2.9-3.2-4-4.3
			c-16-16-32.1-32-48.1-48.1c-5.2-5.2-6.4-12.3-3.6-18.4s9.3-10.2,15.8-9c4,0.8,7.8,2.6,10.8,5.4c26.5,26.1,52.8,52.3,79,78.7
			c6.9,6.9,6.9,16.3,0.1,23.2c-26.4,26.4-52.8,52.8-79.3,79.1c-7,7-16.8,7.1-23.2,0.6s-6.2-16.4,0.9-23.6
			c15.8-15.8,31.5-31.6,47.4-47.4c1.1-1.1,2.2-2.4,4.1-4.3h-6.2c-51,0-102-0.2-153,0.1c-9.8,0.1-16.7-3-20.6-12.1L0,220z"/>
		<path class="st0" d="M495.9,9.9C489.5,5.7,482,3.2,475,0H222c-1.1,0.4-2.2,0.7-3.3,1c-24.7,4.7-44.4,24.3-47.2,49.2
			c-1.6,14.1-0.6,28.6-0.4,42.9c0,2.4,1.6,5.1,3.1,7.2c4,5.4,11,7.6,17.4,5.5c6.5-2,11-8,11.2-15.6c0.2-9.8,0-19.7,0.1-29.5
			c0.1-18,10.9-28.8,29-28.8c42.3,0,84.7,0,127,0h4.1c-3.2,1.9-6.6,3.4-10.2,4.4c-7.2,2.5-14.5,5-21.7,7.3
			c-21.5,7-32.2,21.7-32.2,44.4c0,107,0,214,0,321v6.6c-2.1,0.1-3.5,0.2-5,0.2c-21,0-42,0-63,0c-16.7,0-27.8-11.1-28-27.9
			c-0.1-10,0.1-20-0.1-30c-0.2-9.7-7.2-16.9-16.2-16.8s-15.7,7.2-15.8,17.1s-0.1,20,0,30c0.2,34.2,25.8,59.6,59.9,59.6
			c20.8,0,41.7,0,62.5,0h5.7c0,8.3-0.2,15.7,0,23.2c0.4,13.3,6,24.4,16.9,31.9c5.7,4,12.8,6,19.2,8.9h13
			c41.7-13.8,83.3-28.2,125.3-41.3c19.9-6.2,34-16.7,38.7-37.7V36C509.1,25.8,505,15.9,495.9,9.9z M469.6,438
			c-40.6,13.5-81.2,26.9-121.6,40.7c-9,3.1-17.5-1.7-17.5-12.6c0.2-31.5,0.3-63,0.3-94.5s-0.1-63-0.1-94.5V89.6
			c0-10.6,1.3-12.4,11.4-15.8c40.2-13.5,80.5-26.9,120.7-40.3c11-3.7,17.2,0.7,17.2,12.3v378C480,432.3,477.8,435.2,469.6,438z"/>
	</g>
</g>
</svg>
