<?xml version="1.0" encoding="utf-8"?>
<!-- Generator: Adobe Illustrator 24.3.0, SVG Export Plug-In . SVG Version: 6.00 Build 0)  -->
<svg version="1.1" id="Layer_1" xmlns="http://www.w3.org/2000/svg" xmlns:xlink="http://www.w3.org/1999/xlink" x="0px" y="0px"
	 viewBox="0 0 820.3 656.4" style="enable-background:new 0 0 820.3 656.4;" xml:space="preserve">
<style type="text/css">
	.st0{fill:#FFFFFF;}
</style>
<g id="Layer_2_1_">
	<g id="Layer_1-2">
		<path class="st0" d="M533,653.2c-8.9,2.7-17.9,3.3-27.1,3.3c-147.1-0.1-294.2-0.1-441.3,0c-24.9,0-44.1-10-56.8-31.5
			c-5.1-8.4-7.8-18.1-7.7-28c0.4-19-1.1-38,1.1-57c0.2-2.1,0.5-4.3,0.8-6.4c2.7-14,6.8-27.8,12.1-41c7-14.5,15.5-28.2,25.3-40.9
			c1.2-0.7,2.2-1.7,2.8-3c0.8-0.8,1.8-1.5,2.5-2.4c11-12.2,23.8-22.8,37.8-31.3c12.8-7.9,26.5-13.6,40.6-18.5
			c13.5-3.4,27.2-5.7,41-6.9c13.9-0.6,27.5,1.7,40.9,5.3c13.5,4.5,27,9,41.1,11.5c13.5,3,27.2,3.7,41,3.7
			c13.8,0.4,27.6-0.8,41.1-3.8c14-2.5,27.5-6.9,40.9-11.5c13.4-3.5,27-5.7,40.9-5.2c13.8,1.2,27.6,3.5,41,7c0.4,0.3,0.8,0.6,1.2,0.8
			c20.9,6.2,39.4,16.7,56.7,29.7c5.4,4.1,9.9,9.1,14.8,13.6c2.2,2.1,3.7,5.2,7,5.9c1,1.8,1.7,3.7,3.4,4.9c10,12.7,18.6,26.5,25.6,41
			c4.8,12,8.6,24.3,11.3,36.9c3.1,14.9,2.8,30,3.2,45c-0.1,7.7-0.1,15.3-0.3,23c-0.2,7.8-2.1,15.6-5.3,22.7
			C561.4,636.2,549.1,646.7,533,653.2z M512.5,574.5c0.7-13.8,0-27.5-3.7-40.9c-3.1-12.7-8.7-24.7-16.6-35.2l-4.3-5.8
			c-2.5-2.8-4.9-5.8-7.5-8.5c-8.5-8.5-17.9-16-29.2-20.8c-12.8-7.1-26.6-10.6-41.1-11.5c-15.1-2.2-28.6,4-42.5,8.4
			c-13.1,3.6-26.3,6.6-39.7,8.9c-13.6,1.6-27.2,2.6-40.8,2.8c-13.7-0.2-27.3-1.2-40.9-2.9c-13.9-2.4-27.6-5.5-41.1-9.3
			c-13.4-4.2-26.4-10-41-7.9c-14.7,0.7-29.1,4.8-42,11.8c-14.1,6.7-26.4,16.6-35.9,29c-2,2.1-3.8,4.4-5.2,6.9
			c-7.2,9.8-12.4,20.9-15.2,32.7c-4.6,13.8-5,28-4.4,42.4c-0.1,5.6,0,11.3-0.2,16.9c-0.1,2.7,1.1,3.4,3.5,3.3
			c5.8-0.2,11.6-0.2,17.4-0.2h410c5.8,0.1,11.6,0.1,17.4,0.2c2.1,0,3.5-0.4,3.4-2.9C512.7,586.1,512.6,580.3,512.5,574.5z"/>
		<path class="st0" d="M369.1,18.8c8.4,5.2,17.2,9.9,25.3,15.7c16.8,12.1,31.5,27,43.6,43.9c0.9,1.2,1.8,2.3,2.8,3.5
			c2.7,5.2,5.7,10.2,9.2,14.9l11.4,25.9c4.3,13.4,7.5,27.2,9.5,41.1c1,13.6,1,27.2,0.1,40.8c-1.9,14-5.1,27.7-9.5,41.1l-11.2,26
			c-3.4,4.8-6.4,9.8-9,15c-4.1,5.4-8.1,10.9-12.5,16.1c-16.5,20-36.8,35.3-59.7,47.5c-17.3,8.2-35.7,13.9-54.6,17
			c-9.1,1.4-18.2,1.1-27.3,2.3c-9.5,0.8-18.7-1.2-28-2.5c-18.9-2.6-36.6-8.8-53.9-16.7c-1.3-0.7-2.5-1.5-3.8-2.2
			c-18.1-9.8-34.6-22.4-48.8-37.2c-7.4-7.7-12.9-16.8-20.2-24.4c-1.5-5.3-5.1-9.4-7.9-14c-4.2-8.9-8.4-17.8-11.8-27
			c-4.3-13.3-7.4-27-9.4-40.9c-1.1-13.6-1-27.3,0.1-40.9c2-13.9,5.2-27.6,9.5-40.9c3.5-8,6.9-16,10.4-24l10.1-17.1
			c8.4-10.7,16.8-21.7,26.8-31.2c13.5-12.7,28.8-22.8,44.9-31.7c15.9-7.2,32.3-13.1,49.6-16.1c24.3-4.1,49.2-3.6,73.3,1.7
			C342.2,7.7,355.8,13,369.1,18.8z M329.2,299.7c8.3-2.8,16.5-5.8,23-11.9c6.9-2.3,11.9-7.2,16.9-12.2c10-8.3,18.2-18.4,24.3-29.9
			c7.8-12.5,12.8-26.5,14.6-41.1c2.8-13.5,2.8-27.5-0.1-41c-2.1-15-7.5-29.4-15.8-42.2c-5.6-10.2-13-19.4-21.9-26.9
			c-4.9-5.2-10.5-9.6-16.7-13c-7.3-5.4-15.5-9.5-24.1-12.2c-13.6-5.6-27.7-7.9-42.4-7.6c-14-0.4-27.9,2-41,7.1
			c-8.6,2.5-16.8,6.5-24.1,11.7c-6.3,3.3-12.1,7.7-17,12.9c-9.8,8.1-17.9,18-23.9,29.2c-7.9,12.4-13,26.4-15,41
			c-2.9,13.5-3,27.5-0.1,41c1.7,14.8,7,28.4,14.6,41.2c6.2,11.5,14.4,21.6,24.4,30c4.6,4.8,9.9,8.8,15.7,12
			c7.7,5.5,16.2,9.7,25.2,12.4c13.2,5.2,27,7.3,41.2,7.3C301.6,307.5,315.8,305.4,329.2,299.7z"/>
		<path class="st0" d="M779,276.6c6.5,0.1,13,0.3,19.4,0.2c11.9-0.2,22.8,9.1,21.8,21.9c-0.5,6.3,0,12.6-0.1,18.9
			c-0.1,11.9-8.2,20.3-20.2,20.8c-7,0.3-13.9,0.2-20.9,0.3h-41c-8.9-0.1-17.9-0.1-26.8-0.2c-2.5,0-3.6,0.6-3.5,3.3
			c0.2,9.3,0.2,18.5,0.3,27.8v38v3c-0.1,6.1,0,12.3-0.2,18.4c-0.4,13-7.9,21.5-20.1,22.2c-7.1,0.4-14.3,0.4-21.4,0
			c-12.1-0.8-19.8-9.1-20.1-21.2c-0.1-6.5-0.1-13-0.2-19.4c0-1,0-2,0-3v-38c0.1-9.3,0.1-18.6,0.2-27.9c0-2.3-0.7-3.2-3.1-3.2
			c-9.3,0.2-18.6,0.2-27.9,0.2h-41c-6.3-0.1-12.6-0.1-18.9-0.2c-13.2-0.3-21.8-8.8-22-21.9c-0.1-6-0.1-12,0-17.9
			c0.2-13.1,8.8-21.6,22-21.9c6.3-0.1,12.6-0.1,18.9-0.2h41c9.3,0.1,18.6,0.1,27.9,0.2c2.5,0,3.1-0.9,3.1-3.2
			c-0.1-9.3-0.2-18.6-0.2-27.9c0-13.7,0-27.3,0-41c0.1-6.1,0.1-12.3,0.2-18.4c0.2-13.6,8.5-22,22.1-22.3c5.5-0.1,11-0.1,16.4,0
			c14.6,0.1,23,8.6,23.2,23.4c0.1,5.8,0.1,11.6,0.2,17.4v41c-0.1,9.3-0.1,18.5-0.3,27.8c0,2.7,1,3.4,3.5,3.4
			c8.9-0.2,17.9-0.2,26.8-0.2L779,276.6z"/>
	</g>
</g>
</svg>
