<?xml version="1.0" encoding="utf-8"?>
<!-- Generator: Adobe Illustrator 24.3.0, SVG Export Plug-In . SVG Version: 6.00 Build 0)  -->
<svg version="1.1" id="Layer_1" xmlns="http://www.w3.org/2000/svg" xmlns:xlink="http://www.w3.org/1999/xlink" x="0px" y="0px"
	 viewBox="0 0 287.23 285.7" style="enable-background:new 0 0 287.23 285.7;" xml:space="preserve">
<style type="text/css">
	.st0{opacity:0.5;fill:#B3B3B3;}
</style>
<path class="st0" d="M231.92,149.5c-2.98-4.77-5.94-9.55-8.91-14.32c-0.42-0.68-0.84-0.9-1.73-0.48
	c-19.24,9.2-38.51,18.35-57.77,27.51c-4.13,1.96-8.25,3.92-12.56,5.96c0.17-0.56,0.28-0.95,0.41-1.34
	c11.9-35.61,23.81-71.22,35.73-106.83c0.28-0.83,0.17-1.4-0.49-2.02c-4.22-4.02-8.4-8.07-12.57-12.14
	c-0.57-0.55-0.97-0.69-1.75-0.31c-35.92,17.23-71.84,34.45-107.8,51.59c-2.2,1.05-3.56,2.34-4.43,4.63
	c-1.83,4.82-3.96,9.52-5.94,14.28c-0.25,0.61-0.66,1.19-0.18,1.95c3,4.8,5.98,9.61,8.93,14.44c0.46,0.75,0.82,0.69,1.53,0.35
	c8.29-3.94,16.6-7.82,24.89-11.76c0.72-0.34,1.04-0.32,1.54,0.37c8.1,11.08,16.22,22.15,24.39,33.18c0.77,1.04,0.92,1.84,0.49,3.08
	c-5.76,16.66-11.44,33.35-17.16,50.02c-0.23,0.66-0.15,1.06,0.37,1.57c3.75,3.67,7.44,7.39,11.17,11.09
	c0.74,0.73,1.4,1.77,2.29,2.04c0.79,0.24,1.63-0.81,2.5-1.2c0.07-0.03,0.15-0.05,0.22-0.08c35.36-16.88,70.71-33.79,106.11-50.59
	c2.26-1.07,3.67-2.39,4.56-4.75c1.83-4.86,3.99-9.59,5.99-14.39C231.97,150.78,232.36,150.21,231.92,149.5z M64.41,99.32
	c18.8-8.98,37.59-18,56.37-27.01c17.06-8.18,34.11-16.36,51.16-24.57c0.77-0.37,1.21-0.31,1.82,0.32
	c3.37,3.45,6.81,6.83,10.22,10.24c0.24,0.24,0.46,0.5,0.68,0.75c-0.19,0.35-0.51,0.4-0.77,0.52c-8.04,3.82-16.08,7.64-24.11,11.47
	c-15.21,7.24-30.41,14.49-45.64,21.7c-13.89,6.58-27.8,13.1-41.68,19.67c-0.72,0.34-1.06,0.37-1.52-0.39
	c-2.27-3.74-4.59-7.44-6.94-11.13C63.49,100.09,63.47,99.76,64.41,99.32z M63.77,129.26c-0.07,0.18-0.11,0.38-0.46,0.47
	c-1.09-1.74-2.21-3.52-3.32-5.3c-1.39-2.22-2.77-4.44-4.17-6.65c-0.28-0.44-0.45-0.78-0.2-1.36c2.11-4.95,4.18-9.92,6.26-14.88
	c0.04-0.09,0.12-0.17,0.27-0.39c1.44,2.31,2.84,4.55,4.23,6.79c1.1,1.76,2.19,3.53,3.28,5.29c0.2,0.33,0.36,0.61,0.18,1.06
	C67.79,119.27,65.78,124.26,63.77,129.26z M65.03,130.23c0.99-2.2,1.87-4.14,2.73-6.08c1.23-2.78,2.46-5.55,3.67-8.34
	c0.3-0.7,0.74-1.17,1.46-1.52c24.96-11.91,49.91-23.84,74.87-35.77c11.82-5.65,23.63-11.31,35.44-16.97
	c0.48-0.23,0.97-0.44,1.75-0.8c-0.84,2.47-1.53,4.66-2.32,6.81c-2.03,5.52-3.74,11.14-5.61,16.71c-2.83,8.39-5.7,16.76-8.53,25.15
	c-2.74,8.1-5.44,16.21-8.18,24.3c-3.94,11.63-7.9,23.24-11.83,34.87c-0.2,0.6-0.55,0.96-1.11,1.23c-5.79,2.79-11.57,5.6-17.36,8.39
	c-0.33,0.16-0.67,0.42-1.1,0.22c2.47-7.21,4.94-14.43,7.44-21.63c0.27-0.79,0.28-1.4-0.24-2.12c-4.09-5.65-8.14-11.32-12.2-16.98
	c-5.81-8.1-11.62-16.19-17.43-24.29c-0.07-0.09-0.11-0.2-0.2-0.39c2.63-1.25,5.24-2.5,7.87-3.73c1.03-0.49,2.17-1.42,3.1-1.26
	c0.96,0.17,1.46,1.65,2.14,2.57c7.23,9.72,14.45,19.45,21.67,29.18c0.22,0.3,0.37,0.66,0.84,0.85
	c6.56-18.68,12.67-37.49,19.69-56.41C129.41,99.87,97.24,114.77,65.03,130.23z M129.13,119.93c-3.29-4.4-6.51-8.71-9.78-13.08
	c5.8-2.73,11.51-5.43,17.47-8.23C134.21,105.83,131.7,112.81,129.13,119.93z M138.96,98.48c0.26-0.74,0.64-1.2,1.36-1.53
	c5.55-2.58,11.07-5.2,16.6-7.8c0.21-0.1,0.42-0.18,0.92-0.4c-5.51,15.91-10.94,31.56-16.36,47.19c-0.52,0.03-0.65-0.36-0.84-0.62
	c-3.11-4.15-6.2-8.33-9.32-12.47c-0.44-0.58-0.55-1.06-0.29-1.78C133.71,113.54,136.35,106.01,138.96,98.48z M92.93,120.08
	c-0.32-0.44-0.38-0.62,0.2-0.89c3.53-1.64,7.05-3.32,10.56-5.01c0.49-0.23,0.72-0.09,1.01,0.31c9.44,13.24,18.89,26.47,28.33,39.7
	c0.06,0.08,0.08,0.2,0.25,0.62c-4.71,0-9.21-0.01-13.72,0.01c-0.74,0-1.24-0.17-1.71-0.82C109.56,142.69,101.24,131.39,92.93,120.08
	z M101.78,204.46c5.29-15.38,10.61-30.74,15.89-46.12c0.32-0.93,0.74-1.21,1.7-1.2c4.36,0.06,8.72,0.02,13.08,0.02
	c0.38,0,0.75,0,1.23,0c-2.91,8.54-5.78,16.95-8.65,25.36c0.08,0.1,0.16,0.21,0.25,0.31c31.62-14.94,63.24-29.88,95.07-44.92
	c-1.22,2.8-2.34,5.4-3.47,7.99c-0.81,1.87-1.66,3.73-2.43,5.62c-0.34,0.84-0.89,1.36-1.71,1.74c-18.46,8.77-36.92,17.56-55.36,26.36
	c-18.21,8.69-36.42,17.4-54.63,26.11c-0.45,0.21-0.9,0.4-1.43,0.63C101.19,205.59,101.58,205.03,101.78,204.46z M221.44,168.13
	c-19.23,9.24-38.46,18.48-57.69,27.72c-16.58,7.96-33.16,15.92-49.72,23.91c-0.68,0.33-1.1,0.36-1.67-0.21
	c-3.52-3.52-7.06-7.01-10.63-10.49c-0.59-0.57-0.59-0.77,0.2-1.15c16.61-7.9,33.21-15.83,49.81-23.74c6.66-3.18,13.3-6.41,20-9.49
	c13.97-6.41,27.77-13.17,41.67-19.73c0.24-0.11,0.49-0.21,0.69-0.29c0.44,0.01,0.55,0.34,0.7,0.59c2.41,3.87,4.79,7.77,7.23,11.62
	C222.58,167.75,222.01,167.86,221.44,168.13z M230.2,151c-2.11,4.95-4.18,9.92-6.26,14.88c-0.04,0.09-0.12,0.17-0.27,0.39
	c-1.44-2.31-2.84-4.55-4.23-6.79c-1.1-1.76-2.19-3.53-3.28-5.29c-0.2-0.33-0.36-0.61-0.18-1.06c2.05-5.02,4.07-10.05,6.11-15.08
	c0.05-0.13,0.16-0.24,0.33-0.5c1.18,1.88,2.29,3.66,3.41,5.44c1.39,2.22,2.77,4.44,4.17,6.65C230.28,150.08,230.45,150.42,230.2,151
	z"/>
</svg>
