<?xml version="1.0" encoding="utf-8"?>
<!-- Generator: Adobe Illustrator 24.3.0, SVG Export Plug-In . SVG Version: 6.00 Build 0)  -->
<svg version="1.1" id="Layer_1" xmlns="http://www.w3.org/2000/svg" xmlns:xlink="http://www.w3.org/1999/xlink" x="0px" y="0px"
	 viewBox="0 0 102 103" style="enable-background:new 0 0 102 103;" xml:space="preserve">
<style type="text/css">
	.st0{fill:#FFFFFF;stroke:#666161;stroke-width:0.5;stroke-miterlimit:10;}
	.st1{fill:#FFFFFF;stroke:#666161;stroke-miterlimit:10;}
	.st2{fill:none;stroke:#666161;stroke-width:0.5;stroke-miterlimit:10;}
</style>
<g>
	<path class="st0" d="M18.2,40.9"/>
	<path class="st1" d="M15.7,50.4"/>
	<line class="st2" x1="18.2" y1="40.9" x2="71.4" y2="15.9"/>
	<line class="st2" x1="54.1" y1="66.6" x2="71.4" y2="15.8"/>
	<line class="st2" x1="44.1" y1="71.3" x2="47.8" y2="60.5"/>
	<line class="st2" x1="47.8" y1="60.5" x2="33.6" y2="40.3"/>
	<line class="st2" x1="65.1" y1="9.6" x2="71.4" y2="15.9"/>
	<line class="st2" x1="14.2" y1="33.8" x2="65.2" y2="9.6"/>
	<line class="st2" x1="14.9" y1="49.5" x2="60" y2="27.2"/>
	<line class="st2" x1="59.9" y1="27.3" x2="50.8" y2="51.8"/>
	<line class="st2" x1="40" y1="37.1" x2="50.8" y2="51.7"/>
	<line class="st2" x1="49.3" y1="32.5" x2="45.4" y2="44.3"/>
	<line class="st2" x1="27.1" y1="43.5" x2="39.2" y2="60.4"/>
	<line class="st2" x1="39.2" y1="60.4" x2="47.8" y2="60.5"/>
	<line class="st2" x1="39.2" y1="60.4" x2="30.8" y2="84.6"/>
	<line class="st2" x1="30.8" y1="84.4" x2="84.6" y2="59.2"/>
	<line class="st2" x1="87.9" y1="51" x2="84.6" y2="59.2"/>
	<line class="st2" x1="30.8" y1="84.4" x2="37.2" y2="90.7"/>
	<line class="st2" x1="88.8" y1="65.9" x2="84.6" y2="59.2"/>
	<line class="st2" x1="91.4" y1="57.7" x2="88.8" y2="66"/>
	<line class="st2" x1="87.8" y1="50.9" x2="91.4" y2="57.8"/>
	<line class="st2" x1="44.1" y1="71.2" x2="87.9" y2="51"/>
	<line class="st2" x1="37" y1="90.7" x2="88.8" y2="65.9"/>
	<line class="st2" x1="14.2" y1="33.8" x2="18.2" y2="40.9"/>
	<line class="st2" x1="14.2" y1="33.7" x2="10.5" y2="42.8"/>
	<line class="st2" x1="10.5" y1="42.7" x2="15" y2="49.6"/>
	<line class="st2" x1="18.2" y1="40.9" x2="14.9" y2="49.5"/>
</g>
</svg>
