<?xml version="1.0" encoding="utf-8"?>
<!-- Generator: Adobe Illustrator 24.3.0, SVG Export Plug-In . SVG Version: 6.00 Build 0)  -->
<svg version="1.1" id="Layer_1" xmlns="http://www.w3.org/2000/svg" xmlns:xlink="http://www.w3.org/1999/xlink" x="0px" y="0px"
	 viewBox="0 0 192.3 187.2" style="enable-background:new 0 0 192.3 187.2;" xml:space="preserve">
<style type="text/css">
	.st0{fill:#FFFFFF;stroke:#FFFFFF;stroke-miterlimit:10;enable-background:new    ;}
</style>
<path class="st0" d="M183.3,108.7c-3-4.8-5.9-9.6-8.9-14.3c-0.4-0.7-0.8-0.9-1.7-0.5c-19.2,9.2-38.5,18.4-57.8,27.5
	c-4.1,2-8.2,3.9-12.6,6c0.2-0.6,0.3-0.9,0.4-1.3c11.9-35.6,23.8-71.2,35.7-106.8c0.3-0.8,0.2-1.4-0.5-2c-4.2-4-8.4-8.1-12.6-12.1
	c-0.6-0.5-1-0.7-1.8-0.3C87.7,22,51.8,39.2,15.8,56.3c-2.2,1.1-3.6,2.3-4.4,4.6c-1.8,4.8-4,9.5-5.9,14.3c-0.2,0.6-0.7,1.2-0.2,1.9
	c3,4.8,6,9.6,8.9,14.4c0.5,0.8,0.8,0.7,1.5,0.4C24,88,32.3,84.2,40.6,80.2c0.7-0.3,1-0.3,1.5,0.4c8.1,11.1,16.2,22.1,24.4,33.2
	c0.8,1,0.9,1.8,0.5,3.1c-5.8,16.7-11.4,33.3-17.2,50c-0.2,0.7-0.2,1.1,0.4,1.6c3.8,3.7,7.4,7.4,11.2,11.1c0.7,0.7,1.4,1.8,2.3,2
	c0.8,0.2,1.6-0.8,2.5-1.2c0.1,0,0.2-0.1,0.2-0.1c35.4-16.9,70.7-33.8,106.1-50.6c2.3-1.1,3.7-2.4,4.6-4.8c1.8-4.9,4-9.6,6-14.4
	C183.3,110,183.7,109.4,183.3,108.7z M15.8,58.5c18.8-9,37.6-18,56.4-27c17.1-8.2,34.1-16.4,51.2-24.6c0.8-0.4,1.2-0.3,1.8,0.3
	c3.4,3.5,6.8,6.8,10.2,10.2c0.2,0.2,0.5,0.5,0.7,0.8c-0.2,0.3-0.5,0.4-0.8,0.5c-8,3.8-16.1,7.6-24.1,11.5
	C95.9,37.5,80.7,44.7,65.5,52c-13.9,6.6-27.8,13.1-41.7,19.7c-0.7,0.3-1.1,0.4-1.5-0.4c-2.3-3.7-4.6-7.4-6.9-11.1
	C14.8,59.3,14.8,59,15.8,58.5z M15.1,88.5c-0.1,0.2-0.1,0.4-0.5,0.5c-1.1-1.7-2.2-3.5-3.3-5.3c-1.4-2.2-2.8-4.4-4.2-6.7
	c-0.3-0.4-0.5-0.8-0.2-1.4c2.1-4.9,4.2-9.9,6.3-14.9c0-0.1,0.1-0.2,0.3-0.4c1.4,2.3,2.8,4.6,4.2,6.8c1.1,1.8,2.2,3.5,3.3,5.3
	c0.2,0.3,0.4,0.6,0.2,1.1C19.1,78.5,17.1,83.5,15.1,88.5z M16.4,89.4c1-2.2,1.9-4.1,2.7-6.1c1.2-2.8,2.5-5.6,3.7-8.3
	c0.3-0.7,0.7-1.2,1.5-1.5c25-11.9,49.9-23.8,74.9-35.8c11.8-5.7,23.6-11.3,35.4-17c0.5-0.2,1-0.4,1.8-0.8c-0.8,2.5-1.5,4.7-2.3,6.8
	c-2,5.5-3.7,11.1-5.6,16.7c-2.8,8.4-5.7,16.8-8.5,25.2c-2.7,8.1-5.4,16.2-8.2,24.3c-3.9,11.6-7.9,23.2-11.8,34.9
	c-0.2,0.6-0.6,1-1.1,1.2c-5.8,2.8-11.6,5.6-17.4,8.4c-0.3,0.2-0.7,0.4-1.1,0.2c2.5-7.2,4.9-14.4,7.4-21.6c0.3-0.8,0.3-1.4-0.2-2.1
	c-4.1-5.6-8.1-11.3-12.2-17c-5.8-8.1-11.6-16.2-17.4-24.3c-0.1-0.1-0.1-0.2-0.2-0.4c2.6-1.2,5.2-2.5,7.9-3.7c1-0.5,2.2-1.4,3.1-1.3
	c1,0.2,1.5,1.7,2.1,2.6C78,79.5,85.2,89.3,92.4,99c0.2,0.3,0.4,0.7,0.8,0.9c6.6-18.7,12.7-37.5,19.7-56.4
	C80.8,59.1,48.6,74,16.4,89.4z M80.5,79.1c-3.3-4.4-6.5-8.7-9.8-13.1c5.8-2.7,11.5-5.4,17.5-8.2C85.6,65,83,72,80.5,79.1z
	 M90.3,57.7c0.3-0.7,0.6-1.2,1.4-1.5c5.6-2.6,11.1-5.2,16.6-7.8c0.2-0.1,0.4-0.2,0.9-0.4c-5.5,15.9-10.9,31.6-16.4,47.2
	c-0.5,0-0.6-0.4-0.8-0.6c-3.1-4.1-6.2-8.3-9.3-12.5c-0.4-0.6-0.6-1.1-0.3-1.8C85.1,72.8,87.7,65.2,90.3,57.7z M44.3,79.3
	c-0.3-0.4-0.4-0.6,0.2-0.9c3.5-1.6,7.1-3.3,10.6-5c0.5-0.2,0.7-0.1,1,0.3c9.4,13.2,18.9,26.5,28.3,39.7c0.1,0.1,0.1,0.2,0.2,0.6
	c-4.7,0-9.2,0-13.7,0c-0.7,0-1.2-0.2-1.7-0.8C60.9,101.9,52.6,90.6,44.3,79.3z M53.1,163.7c5.3-15.4,10.6-30.7,15.9-46.1
	c0.3-0.9,0.7-1.2,1.7-1.2c4.4,0.1,8.7,0,13.1,0c0.4,0,0.8,0,1.2,0c-2.9,8.5-5.8,16.9-8.7,25.4c0.1,0.1,0.2,0.2,0.2,0.3
	c31.6-14.9,63.2-29.9,95.1-44.9c-1.2,2.8-2.3,5.4-3.5,8c-0.8,1.9-1.7,3.7-2.4,5.6c-0.3,0.8-0.9,1.4-1.7,1.7
	c-18.5,8.8-36.9,17.6-55.4,26.4c-18.2,8.7-36.4,17.4-54.6,26.1c-0.4,0.2-0.9,0.4-1.4,0.6C52.5,164.8,52.9,164.2,53.1,163.7z
	 M172.8,127.3c-19.2,9.2-38.5,18.5-57.7,27.7C98.5,163,81.9,171,65.4,179c-0.7,0.3-1.1,0.4-1.7-0.2c-3.5-3.5-7.1-7-10.6-10.5
	c-0.6-0.6-0.6-0.8,0.2-1.1c16.6-7.9,33.2-15.8,49.8-23.7c6.7-3.2,13.3-6.4,20-9.5c14-6.4,27.8-13.2,41.7-19.7
	c0.2-0.1,0.5-0.2,0.7-0.3c0.4,0,0.6,0.3,0.7,0.6c2.4,3.9,4.8,7.8,7.2,11.6C173.9,127,173.4,127.1,172.8,127.3z M181.5,110.2
	c-2.1,4.9-4.2,9.9-6.3,14.9c0,0.1-0.1,0.2-0.3,0.4c-1.4-2.3-2.8-4.6-4.2-6.8c-1.1-1.8-2.2-3.5-3.3-5.3c-0.2-0.3-0.4-0.6-0.2-1.1
	c2.1-5,4.1-10.1,6.1-15.1c0.1-0.1,0.2-0.2,0.3-0.5c1.2,1.9,2.3,3.7,3.4,5.4c1.4,2.2,2.8,4.4,4.2,6.6
	C181.6,109.3,181.8,109.6,181.5,110.2z"/>
</svg>
