<svg xmlns="http://www.w3.org/2000/svg" viewBox="0 0 511.78 511.81"><defs><style>.cls-1{fill:#fff;}</style></defs><g id="Layer_2" data-name="Layer 2"><g id="Layer_1-2" data-name="Layer 1"><path class="cls-1" d="M511.78,228.91c-2.73,4.72-6.69,8.35-10.5,12.15q-36.78,36.69-73.52,73.42c-9.45,9.4-24,5.87-27.33-6.49-1.74-6.39.34-11.7,4.95-16.29q23.89-23.79,47.73-47.65a27.17,27.17,0,0,1,4-2.73l-.95-1.41h-5.28q-78.18,0-156.35,0c-7.18,0-12.6-2.83-15.73-9.32-2.87-6-2-11.72,2.11-16.82,3.59-4.5,8.52-5.91,14.17-5.91q77.94.1,155.86,0h6.34L444.59,195.3Q425,175.7,405.4,156.08c-7.17-7.21-7.43-17-.79-23.52s16.19-6.2,23.17.75q39.66,39.48,79.18,79.08c1.89,1.89,3.22,4.34,4.82,6.53Z"/><path class="cls-1" d="M162.93,511.81a.79.79,0,0,0-.14-.91c1.82-.3,3.63-.54,5.14.91Z"/><path class="cls-1" d="M341,293.23a15.54,15.54,0,0,0-11.79-15.4c-10.87-2.78-20.09,5-20.11,17.13-.06,30.65,0,61.29,0,91.94,0,18.06-10.89,28.92-28.86,28.94-20.32,0-40.65-.16-61,.13-4.88.07-6.28-.92-6.27-6.11q.27-161.16.13-322.32c0-21.63-10.89-36.71-31.28-43.56Q165,38.33,148.13,32.71l.12-.72h3.29Q216.25,32,281,32c17,0,28,11.09,28.13,28.16.08,14.16,0,28.32,0,42.48,0,17-.09,34,0,51,.07,9.72,7,17,15.91,17.06s16-7,16-16.8c.07-32.14.24-64.29-.08-96.44-.25-24.7-16-46-39.31-54.16-3.84-1.34-7.86-2.19-11.79-3.27H37C18.62.26.82,18.49,0,36V433.84c1,5.52,2,10.93,5.22,15.84a46,46,0,0,0,24.78,19q61.25,20.41,122.49,40.84a29.84,29.84,0,0,0,10.25,1.73c1.72.24,3.55-.53,5.19.52h9c.28-.76.94-.76,1.59-.88,17.5-3.46,30.39-16.15,33.89-33.76,1.56-7.89.81-16,.64-23.93-.09-4.19.68-5.61,5.32-5.54,20.82.31,41.64.15,62.46.13,34.71-.05,60.1-25.38,60.26-60.15.07-16.49,0-33,0-49.48C341.09,323.21,341.17,308.22,341,293.23ZM181,431.75c0,11.83.18,23.65.15,35.47,0,10-6.33,14.68-15.79,11.54Q103.22,458.11,41.1,437.32c-6.74-2.25-9.1-5.56-9.1-12.52q0-190.12,0-380.24c0-9.89,6.47-14.62,15.88-11.5q61.9,20.52,123.76,41.18c7.42,2.48,9.52,5.57,9.52,13.75q0,94.7,0,189.37H181Q181,354.55,181,431.75Z"/></g></g></svg>