<?xml version="1.0" encoding="utf-8"?>
<!-- Generator: Adobe Illustrator 24.3.0, SVG Export Plug-In . SVG Version: 6.00 Build 0)  -->
<svg version="1.1" id="Layer_1" xmlns="http://www.w3.org/2000/svg" xmlns:xlink="http://www.w3.org/1999/xlink" x="0px" y="0px"
	 viewBox="0 0 199.7 185.1" style="enable-background:new 0 0 199.7 185.1;" xml:space="preserve">
<style type="text/css">
	.st0{fill:#FFFFFF;}
</style>
<path class="st0" d="M45.5,43.8c0-3,0-5.7,0-8.4c0-6.5,3.5-11.8,9.2-13.9c5.9-2.2,11.8-0.6,16.2,4.4c0.1,0.2,0.2,0.4,0.4,0.7
	c0.6-0.6,0.9-1,1.3-1.5c3.9-4.2,10-5.7,15.4-3.7c5.4,2,9.1,7.1,9.3,12.8c0.1,3.1,0,6.2,0,9.5c2.4,0,4.8,0,7.1,0
	c2.4,0,3.3,0.9,3.3,3.3c0,11.2,0,22.3,0,33.5c0,0.6,0,1.2,0,1.9c2.6,0,5.1,0,7.8,0c0-1.5,0-3,0-4.4c0.1-6.6,3.1-11.4,8.9-14.4
	c1.8-0.9,3.5-1.8,5.4-2.6c1-0.4,1.3-1,1.3-2.1c0-11.5,0-23.1,0-34.6c0-3.1,0.7-3.8,3.8-3.8c4.5,0,9.1,0,13.6,0
	c2.4,0,3.3,0.9,3.3,3.3c0,11.7,0,23.3,0,35c0,1.1,0.2,1.7,1.3,2.2c2,0.9,4,1.9,5.9,3c5.4,3,8.3,7.6,8.3,13.7c0.1,28.2,0,56.4,0,84.6
	c0,2.3-0.9,3.2-3.2,3.2c-42.7,0-85.4,0-128.2,0c-2.3,0-3.2-0.9-3.2-3.2c0-38.4,0-76.8,0-115.2c0-2.3,0.9-3.2,3.2-3.3
	C38.9,43.7,42.1,43.8,45.5,43.8z M63.6,160.2c0-0.7,0-1.3,0-1.9c0-12.7,0-25.5,0-38.2c0-3.2-0.6-6.7,0.3-9.6c0.9-3,3.3-5.6,5.1-8.3
	c1.6-2.4,3.8-4.7,4.6-7.3c0.8-2.7,0.2-5.9,0.3-8.8c0-0.1,0-0.2,0-0.3c0-2.1,0.9-3.1,3.1-3.1c1.5,0,3.1,0,4.6,0c0-11.3,0-22.5,0-33.6
	c-2.6,0-5,0-7.7,0c0,2.6,0,5.1,0,7.5c-1.8,0-3.5,0-5.2,0c0-2.6,0-5,0-7.5c-6.1,0-12,0-18.1,0c0,2.6,0,5.1,0,7.6c-1.8,0-3.4,0-5.1,0
	c0-2.6,0-5.1,0-7.5c-2.7,0-5.2,0-7.6,0c0,37.1,0,74.1,0,111.1C46.4,160.2,54.9,160.2,63.6,160.2z M136.1,51.6c0,3.3,0,6.5,0,9.7
	c0,1.5-0.6,2.5-2,3.2c-2.6,1.2-5.1,2.5-7.7,3.8c-3.9,2-5.9,5.2-5.9,9.6c0,5.2,0,10.4,0,15.5c0,0.8,0.3,1.7,0.7,2.4
	c2.8,4.2,5.7,8.4,8.4,12.7c0.7,1.1,1.2,2.6,1.2,3.9c0.1,15.3,0.1,30.6,0.1,46c0,0.6,0,1.2,0,1.8c10.5,0,20.7,0,31,0
	c0-3.5,0-6.8,0-10.3c-6.7,0-13.3,0-19.8,0c-2.4,0-3.3-0.9-3.3-3.3c0-20.2,0-40.5,0-60.7c0-2.4,0.9-3.3,3.3-3.3c6,0,12.1,0,18.1,0
	c0.6,0,1.2,0,1.9,0c0-1.7,0-3.1,0-4.6c0-4.4-2-7.6-5.9-9.6c-2.4-1.2-4.8-2.5-7.2-3.6c-1.8-0.8-2.5-1.9-2.4-3.9c0.1-3.1,0-6.1,0-9.2
	C142.9,51.6,139.6,51.6,136.1,51.6z M104.9,160.2c0-15.6,0-31,0-46.4c-12.1,0-24.1,0-36,0c0,15.5,0,30.9,0,46.4
	C80.9,160.2,92.9,160.2,104.9,160.2z M161.9,118.8c-4.3,0-8.5,0-12.7,0c0-1.8,0-3.4,0-5.2c4.3,0,8.5,0,12.7,0c0-1.8,0-3.4,0-5.2
	c-4.3,0-8.5,0-12.8,0c0-1.8,0-3.4,0-5.1c4.3,0,8.5,0,12.7,0c0-1.8,0-3.4,0-5.2c-4.3,0-8.5,0-12.7,0c0-1.8,0-3.4,0-5.2
	c4.3,0,8.5,0,12.8,0c0-1.8,0-3.4,0-5c-6,0-12,0-17.9,0c0,19,0,37.9,0,56.7c6.1,0,12,0,17.9,0C161.9,136,161.9,127.5,161.9,118.8z
	 M110.3,160.2c5.2,0,10.3,0,15.3,0c0-15.6,0-31,0-46.4c-5.2,0-10.2,0-15.3,0C110.3,129.2,110.3,144.6,110.3,160.2z M87,49
	c0,11.2,0,22.3,0,33.5c5.1,0,10.2,0,15.3,0c0-11.2,0-22.3,0-33.5c-1.7,0-3.3,0-5.1,0c0,9.5,0,18.9,0,28.3c-1.8,0-3.4,0-5.2,0
	c0-9.5,0-18.9,0-28.3C90.3,49,88.7,49,87,49z M113.1,98.1c-11.7,0-23,0-34.3,0c-0.5,0-1.1,0.4-1.4,0.8c-1.4,2-2.8,4.1-4.2,6.2
	c-0.7,1-1.4,2.1-2.2,3.3c11.6,0,23,0,34.3,0c0.4,0,1-0.2,1.2-0.5C108.7,104.8,110.8,101.6,113.1,98.1z M50.7,43.6
	c6.1,0,12.1,0,18.1,0c0-3.3,0.1-6.5,0-9.6c-0.2-4.6-4.2-8.3-8.9-8.4c-4.7-0.1-8.9,3.5-9.1,8.2C50.5,37.1,50.7,40.3,50.7,43.6z
	 M74,43.6c6.1,0,12.1,0,18.1,0c0-3.3,0.1-6.5,0-9.6c-0.2-4.6-4.2-8.3-8.9-8.4c-4.7-0.1-8.9,3.5-9.1,8.2C73.8,37.1,74,40.3,74,43.6z
	 M115.3,87.9c-12.1,0-24.1,0-36,0c0,1.7,0,3.4,0,5c12.1,0,24,0,36,0C115.3,91.2,115.3,89.6,115.3,87.9z M146.4,25.8
	c-3.5,0-6.9,0-10.2,0c0,3.5,0,6.8,0,10.1c3.5,0,6.8,0,10.2,0C146.4,32.5,146.4,29.2,146.4,25.8z M136.2,46.2c3.5,0,6.8,0,10.2,0
	c0-1.7,0-3.4,0-5c-3.4,0-6.8,0-10.2,0C136.2,42.9,136.2,44.5,136.2,46.2z M118,100.2c-1.9,2.8-3.6,5.4-5.5,8.2c3.7,0,7.2,0,10.9,0
	C121.6,105.6,119.9,103.1,118,100.2z"/>
<path class="st0" d="M66.1,67.2c0,1.7,0,3.3,0,5c-6.8,0-13.6,0-20.5,0c0-1.6,0-3.2,0-5C52.4,67.2,59.2,67.2,66.1,67.2z"/>
<path class="st0" d="M66,82.6c-6.9,0-13.6,0-20.5,0c0-1.7,0-3.3,0-5c6.8,0,13.6,0,20.5,0C66,79.2,66,80.9,66,82.6z"/>
<path class="st0" d="M66.1,92.9c-6.8,0-13.6,0-20.5,0c0-1.6,0-3.3,0-5c6.8,0,13.6,0,20.5,0C66.1,89.5,66.1,91.1,66.1,92.9z"/>
<path class="st0" d="M97.2,123.9c-6.9,0-13.7,0-20.5,0c0-1.7,0-3.3,0-5c6.8,0,13.6,0,20.5,0C97.2,120.6,97.2,122.2,97.2,123.9z"/>
<path class="st0" d="M76.6,134.3c0-1.7,0-3.3,0-5c6.9,0,13.7,0,20.6,0c0,1.7,0,3.3,0,5C90.4,134.3,83.6,134.3,76.6,134.3z"/>
<path class="st0" d="M76.6,144.6c0-1.7,0-3.3,0-5c6.8,0,13.6,0,20.5,0c0,1.6,0,3.2,0,5C90.4,144.6,83.6,144.6,76.6,144.6z"/>
</svg>
