<?xml version="1.0" encoding="utf-8"?>
<!-- Generator: Adobe Illustrator 24.3.0, SVG Export Plug-In . SVG Version: 6.00 Build 0)  -->
<svg version="1.1" id="Layer_1" xmlns="http://www.w3.org/2000/svg" xmlns:xlink="http://www.w3.org/1999/xlink" x="0px" y="0px"
	 viewBox="0 0 199.7 185.1" style="enable-background:new 0 0 199.7 185.1;" xml:space="preserve">
<style type="text/css">
	.st0{fill:#FFFFFF;}
</style>
<g>
	<path class="st0" d="M33.2,171.4c-2.1-1-2.8-2.6-2.8-4.9c0-35,0-69.9,0-104.9c0-3.7,1.3-5,5.1-5c14.8,0,29.5,0,44.3,0
		c0.6,0,1.2,0,2,0c0-0.7,0-1.3,0-1.9c0-12.3,0-24.6,0-36.9c0-1.4,0.3-2.5,1.6-3.2c28.5,0,57.1,0,85.6,0c2.1,1,2.8,2.7,2.8,4.9
		c-0.1,24,0,48.1,0,72.1c0,0.4,0,0.7,0,1.1c-0.1,1.4-1,2.4-2.3,2.4c-1.3,0-2.3-1-2.3-2.5c0-0.5,0-0.9,0-1.4c0-23.4,0-46.8,0-70.2
		c0-0.6,0-1.2,0-1.9c-26,0-51.9,0-78,0c0.4,0.5,0.7,0.9,1,1.3c9.7,12,19.4,24.1,29.1,36.1c0.8,1,1.2,2,1.2,3.3c0,20.9,0,41.9,0,62.8
		c0,0.6,0,1.2,0,1.9c15.6,0,31.1,0,46.8,0c0-0.6,0-1.1,0-1.7c0-6.8,0-13.7,0-20.5c0-1.7,0.9-2.7,2.2-2.7c1.4,0,2.3,1,2.4,2.8
		c0,0.4,0,0.7,0,1.1c0,6.8,0,13.7,0,20.5c0,0.4,0,0.8,0,1.2c-0.1,2.3-1.5,3.8-3.8,4c-0.5,0-1,0-1.5,0c-14.7,0-29.4,0-44,0
		c-0.6,0-1.2,0-2,0c0,0.7,0,1.3,0,1.9c0,11.7,0,23.5,0,35.2c0,2.3-0.7,3.9-2.8,4.9c-21.7,0-43.4,0-65.1,0c-1-0.8-1.9-1.6-1.3-3.1
		c0.5-1.4,1.7-1.5,3-1.5c19.9,0,39.7,0,59.6,0c0.6,0,1.2,0,1.9,0c0-35.2,0-70.3,0-105.5c-26.8,0-53.6,0-80.5,0
		c0,35.1,0,70.2,0,105.5c1.6,0,3.2,0,4.8,0c1.1,0,2.2,0,3.4,0c1.3-0.1,2.5,0.2,3,1.6c0.5,1.4-0.3,2.3-1.4,3
		C40.9,171.4,37,171.4,33.2,171.4z M86.4,56.4c8.9,0,17.7,0,26.7,0c-8.9-11.1-17.7-21.9-26.7-33.1C86.4,34.6,86.4,45.5,86.4,56.4z"
		/>
	<path class="st0" d="M144.3,25.2c2.9,0,5.8,0,8.7,0c3,0,5.1,2,5.1,5.1c0,5.9,0,11.7,0,17.6c0,3-2.1,5.1-5.1,5.1
		c-5.9,0-11.7,0.1-17.6,0c-3,0-5-2.1-5.1-5.2c0-5.8,0-11.6,0-17.5c0-3.2,2-5.1,5.2-5.2C138.5,25.2,141.4,25.2,144.3,25.2z
		 M135.1,48.3c0.3,0.1,0.5,0.2,0.8,0.2c5.5,0,11.1,0,16.6,0c1,0,1.1-0.5,1.1-1.3c0-5.4,0-10.7,0-16.1c0-0.4-0.1-0.8-0.1-1.1
		c-6.2,0-12.3,0-18.4,0C135.1,36.1,135.1,42.2,135.1,48.3z"/>
	<path class="st0" d="M143.3,69.4c-4,0-7.9,0-11.9,0c-1.8,0-2.8-0.8-2.9-2.2c0-1.5,1-2.4,2.9-2.4c7.9,0,15.9,0,23.8,0
		c1.8,0,2.9,0.9,2.9,2.3c0,1.4-1.1,2.3-2.9,2.3C151.2,69.4,147.3,69.4,143.3,69.4z"/>
	<path class="st0" d="M143.4,82.9c-4.1,0-8.2,0.1-12.4-0.1c-0.8,0-1.8-0.7-2.2-1.4c-0.3-0.5-0.1-1.6,0.3-2.2c0.4-0.5,1.3-0.9,2-0.9
		c8.2-0.1,16.4-0.1,24.6,0c1.5,0,2.5,1,2.5,2.3c0,1.3-1,2.2-2.5,2.2C151.5,82.9,147.5,82.9,143.4,82.9z"/>
	<path class="st0" d="M143.4,96.4c-3.8,0-7.6,0-11.5,0c-0.6,0-1.3,0.1-1.6-0.1c-0.7-0.5-1.6-1.3-1.6-1.9c0-0.8,0.7-1.7,1.3-2.3
		c0.3-0.3,1.2-0.2,1.8-0.2c7.7,0,15.4,0,23.1,0c0.5,0,0.9,0,1.4,0.1c1.2,0.2,1.9,1,1.9,2.2c0,1.3-0.7,2.1-2.1,2.2
		c-0.8,0.1-1.5,0-2.3,0C150.3,96.4,146.8,96.4,143.4,96.4z"/>
	<path class="st0" d="M143.4,109.9c-4,0-7.9,0-11.9,0c-1.9,0-2.9-0.8-2.9-2.2c0-1.5,1-2.4,2.9-2.4c7.9,0,15.9,0,23.8,0
		c2.2,0,3.4,1.7,2.6,3.3c-0.6,1.1-1.5,1.3-2.6,1.2C151.3,109.9,147.4,109.9,143.4,109.9z"/>
	<path class="st0" d="M51,111.6c16.3,0,32.5,0,48.8,0c0-11.3,0-22.5,0-34c-0.6,0-1.1,0-1.6,0c-8.3,0-16.5,0-24.8,0
		c-0.5,0-1,0-1.5-0.1c-1.2-0.3-1.8-1.1-1.8-2.3c0.1-1.2,0.8-2,2-2.1c0.4-0.1,0.8,0,1.2,0c8.5,0,17,0,25.5,0c3.8,0,5.7,1.9,5.7,5.6
		c0,10.7,0,21.3,0,32c0,3.7-1.9,5.6-5.7,5.6c-15.6,0-31.3,0-46.9,0c-3.8,0-5.6-1.9-5.6-5.6c0-10.7,0-21.3,0-32
		c0-3.7,1.9-5.6,5.5-5.6c3.6,0,7.2,0,10.8,0c1.8,0,2.8,0.9,2.8,2.3c0,1.4-1.1,2.2-2.7,2.3c-3.9,0-7.7,0-11.7,0
		C51,89,51,100.2,51,111.6z"/>
	<path class="st0" d="M75.3,143.8c-6.7,0-13.3,0-20,0c-1.4,0-2.4-0.5-2.7-1.9c-0.2-1.3,0.6-2.4,2-2.6c0.5-0.1,1,0,1.5,0
		c12.8,0,25.7,0,38.5,0c0.4,0,0.7,0,1.1,0c1.5,0.1,2.5,1,2.5,2.3c0,1.3-1,2.3-2.5,2.3C88.9,143.8,82.1,143.8,75.3,143.8z"/>
	<path class="st0" d="M75.4,152c6.5,0,12.9,0,19.4,0c0.5,0,0.9,0,1.4,0c1.2,0.2,1.9,0.9,2,2.1c0.1,1.1-0.5,2-1.6,2.3
		c-0.6,0.2-1.2,0.2-1.8,0.2c-12.9,0-25.8,0-38.6,0c-0.4,0-0.7,0-1.1,0c-1.5-0.1-2.5-1.1-2.4-2.4c0.1-1.3,1-2.1,2.5-2.2
		C61.8,152,68.6,152,75.4,152z"/>
	<path class="st0" d="M75.4,131.1c-6.5,0-13,0-19.5,0c-0.7,0-1.6,0-2-0.3c-0.6-0.5-1.2-1.4-1.1-2.1c0.1-0.7,0.9-1.5,1.6-1.9
		c0.4-0.3,1.2-0.2,1.8-0.2c12.9,0,25.8,0,38.6,0c0.3,0,0.6,0,0.9,0c1.6,0.1,2.5,1,2.6,2.3c0,1.4-1,2.3-2.6,2.3
		C88.8,131.1,82.1,131.1,75.4,131.1z"/>
</g>
</svg>
