<svg xmlns="http://www.w3.org/2000/svg" viewBox="0 0 819.39 653.71"><defs><style>.cls-1{fill:#fff;}</style></defs><g id="Layer_2" data-name="Layer 2"><g id="Layer_1-2" data-name="Layer 1"><path class="cls-1" d="M286.09,0c99.16-1.7,185.12,84.86,184.39,184.6S386.76,367.51,285.69,367.06c-98.83-.45-183.34-85.06-183.13-184.15C102.78,81.5,187.61-1.4,286.09,0Zm-123,182.59c-1.73,67.61,56.39,127.09,128.81,124.21C355,304.3,413.58,250.05,410.06,176.67,407.09,114.6,353.71,57.59,281.6,60,217.09,62.12,162.1,117.43,163.09,182.61Z"/><path class="cls-1" d="M503,422.7l-27.74,27.6c-4.37,4.35-8.8,8.63-13.05,13.09-1.79,1.89-3.29,2.2-5.59.83a103.05,103.05,0,0,0-51.12-14.94c-7.15-.15-14.46,1.64-21.5,3.33-17.92,4.29-35.56,9.92-53.63,13.36-19.11,3.63-38.58,4.12-58.14,3.23-29.53-1.34-57.73-8.44-85.65-17.41-16.94-5.45-33.75-2.56-49.88,3.07C97.37,468.58,72.41,496.05,63,536.52c-2.75,11.79-2.09,24.4-2.76,36.64-.31,5.64,0,11.32-.08,17,0,2.77,1.1,4,3.82,4,1.83,0,3.66,0,5.5,0H384.92c7.43,0,7.05,0,6.53,7.24-1,14-1.64,28.08-2.17,42.14-.12,3.07.84,6.19,1.39,9.84-2.05.1-3.82.27-5.59.27q-160.72,0-321.46.1c-24.28,0-42.8-9.54-55.39-30.16A55.79,55.79,0,0,1,0,593.67Q.11,578,0,562.22c-.23-38.15,10.76-72.74,33.6-103.33C62,420.81,100,398.24,146.93,390.69c24.89-4,48.89-.07,72.53,8.16,25.09,8.74,51.14,11.67,77.61,10.52a213.26,213.26,0,0,0,61.49-11.93c45.13-15.83,87.41-7.72,128,14.86,4.93,2.75,9.53,6.08,14.29,9.13C501.41,421.79,502,422.11,503,422.7Z"/><path class="cls-1" d="M636.11,379.07l90.63,90.5c-.94,1-2.12,2.33-3.38,3.58q-82.85,82.76-165.62,165.58c-4.34,4.36-8.73,6.95-14.89,7.54-19.18,1.83-38.32,4.11-57.48,6.12a150.09,150.09,0,0,1-15.41,1c-9.9,0-18.07-7.58-18-17.52.07-9.43,1.19-18.87,2.19-28.27,1.79-16.66,3.78-33.29,5.85-49.92a10.25,10.25,0,0,1,2.47-5.63q86.15-86.18,172.45-172.18A7.81,7.81,0,0,1,636.11,379.07Z"/><path class="cls-1" d="M757.89,438.62l-90.61-90.76c.84-.93,1.88-2.17,3-3.32q23.48-23.48,47-46.93c14.94-14.88,31.94-14.89,46.93,0Q786,319.27,807.69,341c15.57,15.6,15.59,32.48.09,48q-22.95,23-45.93,45.86C760.57,436.13,759.24,437.34,757.89,438.62Z"/></g></g></svg>