<svg xmlns="http://www.w3.org/2000/svg" viewBox="0 0 488.68 488.68"><defs><style>.cls-1{fill:#fff;}</style></defs><g id="Layer_2" data-name="Layer 2"><g id="Layer_1-2" data-name="Layer 1"><path class="cls-1" d="M218.58,0c8.79,1.26,17.64,2.17,26.35,3.83,42.32,8,78.54,27.7,108.7,58.34,27.42,27.87,45.55,61,53.32,99.39,9.77,48.26,3,94.29-21.22,137.25-7.75,13.75-17.55,26.35-26.75,40,.27.28,1.27,1.46,2.37,2.54l120,118.14c8.68,8.54,9.67,17.59,2.7,24.55s-16.33,6.07-24.77-2.23L338.59,363c-1.12-1.09-2.29-2.13-3.48-3.24-6.46,4.42-12.6,8.91-19,13a202.4,202.4,0,0,1-117.82,31.73c-55.9-2.08-103.54-23.56-142.42-63.83-29.23-30.28-46.93-66.43-53.54-108C1.42,227,.76,221.35,0,215.72V189c.29-1.38.66-2.74.86-4.13,1.19-8,1.91-16.11,3.58-24C12.42,123,30.13,90.3,57.12,62.7c30.3-31,66.73-50.84,109.4-58.91C174.9,2.21,183.41,1.25,191.85,0Zm-187,201.32c.38,7.09.36,13,1.05,18.83C37.05,257.24,51.2,290.08,77,317.23c44.87,47.13,100.2,64.82,163.55,52.48,55.7-10.85,97.32-42.9,122-94.44,24.87-52,23.35-104.48-4.5-154.68-28.55-51.46-73.59-80.79-132-88C180,27,137.57,38.17,100.41,66.34,55.46,100.41,33.1,146.3,31.56,201.32Z"/></g></g></svg>