<svg xmlns="http://www.w3.org/2000/svg" viewBox="0 0 547.87 478.73"><g id="Layer_2" data-name="Layer 2"><g id="Layer_1-2" data-name="Layer 1"><path d="M137.06,340.28c8.63,4.85,17.72,8.78,26.56,13.19,21.3,10.62,42.51,21.41,63.89,31.86,15.67,7.66,31.23,15.54,46.83,23.33a3.85,3.85,0,0,0,3.88-.11q15.87-8,31.79-15.87c24.13-12,48.24-24.05,72.43-35.92,11-5.4,22-10.83,32.91-16.39.61-.72.41-1.59.41-2.4q0-42.35,0-84.7c0-.7.6-1.71-.63-2.1-11.7,6-23.51,11.77-35.12,18-7.6,4-15.4,7.72-23.09,11.59-8.7,4.38-17.45,8.69-26,13.26-3.94,2.1-7.9,4.09-12.13,6.25v-1.88q0-32.88,0-65.77a3.31,3.31,0,0,1,2.22-3.5c13.9-6.9,27.81-13.78,41.54-21,8.12-4.29,16.47-8.11,24.52-12.5s16.47-8.12,24.52-12.51c8.42-4.6,17.19-8.49,25.61-13.07,8-4.34,16.23-8.2,24.32-12.35,2.59-1.33,5.1-2.83,7.71-4.29-2.38-2.12-5.46-3.25-8.25-4.8-13-7.2-26-14.25-39-21.37l-30.69-16.82-36.88-20.2Q339.49,82,324.69,73.86c-.56-.31-1-.92-1.62-1-4.46-1-4.43-4.17-4.41-7.86.14-20.68.07-41.35.07-62V0c3.56,1.79,6.89,3.39,10.15,5.12,4.52,2.39,9,4.9,13.49,7.3q20.4,10.86,40.82,21.67c7.59,4,15.2,8,22.78,12.06q20.08,10.7,40.14,21.43c7.66,4.08,15.35,8.08,23,12.16q20,10.62,39.92,21.3c10.24,5.45,20.54,10.76,30.69,16.36,2.74,1.51,5.8,2.51,8.14,4.71q0,30.63-.07,61.25c-13.3,6.77-26.66,13.43-39.88,20.36-8.27,4.34-16.67,8.42-25,12.65-.15.07-.26.23-.41.28-3.82,1.31-4.86,3.79-4.84,7.93.19,50.59.11,101.18.17,151.77,0,2-.55,3.06-2.31,3.92C463.67,386.1,451.83,392,440,397.9l-73.54,36.52q-36.76,18.25-73.54,36.51c-5,2.49-10.09,4.88-15.09,7.4a3.45,3.45,0,0,1-3.45-.13c-8-4-15.95-8.11-24-12-24.67-11.86-48.9-24.59-73.54-36.51-24.93-12.06-49.52-24.81-74.4-37-8.74-4.27-17.44-8.62-26.15-12.93-.36-.18-.7-.41-1.05-.62,0-1.33-.09-2.66-.09-4q0-76.18,0-152.36c0-1.23.29-2.51-.4-3.67-6.94-3.5-14-6.84-20.78-10.54-8.77-4.76-17.85-8.89-26.63-13.61-7.79-4.19-15.78-8-23.62-12-1.27-.65-2.43-1.52-3.64-2.29l0-56c1.59-1.85,4-2.5,6-3.6C15.44,115.88,25,111,34.57,105.9Q50.7,97.35,66.79,88.75l30.72-16.3L129.73,55.3l30.92-16.44q16.11-8.58,32.22-17.16,15.34-8.16,30.72-16.3c3.27-1.74,6.49-3.55,9.79-5.35a5.08,5.08,0,0,1,.29,2.79c0,21.26,0,42.51.07,63.77,0,2.69-.43,4.25-3.18,5.68-11.12,5.82-22,12.1-33,18.18q-17.33,9.6-34.7,19.13c-7.67,4.21-15.39,8.33-23.06,12.54-11.15,6.13-22.26,12.32-33.41,18.44-6.18,3.39-12.4,6.71-18.6,10.07-1.56.84-3.09,1.73-4.84,2.71,11.56,5.86,22.91,11.44,34.11,17.34,8.62,4.54,17.49,8.61,26.05,13.24,7.94,4.3,16.18,8,24.09,12.28,8.5,4.62,17.34,8.56,25.83,13.17,8.28,4.49,16.89,8.35,25.16,12.85,4.65,2.52,9.4,4.82,14.09,7.24.89.46,1.43.89,1.43,2,0,22.83,0,45.65,0,68.69-6.09-3.1-12-6.12-17.93-9.12-12.09-6.12-24.29-12-36.26-18.41-8.47-4.51-17.21-8.47-25.6-13.08-5.35-2.93-10.94-5.37-16.2-8.43-.25-.23-.44-.22-.55.12l0-.05c-.76.84-.53,1.89-.53,2.86q0,41.78,0,83.56A4.45,4.45,0,0,0,137.06,340.28Z"/></g></g></svg>