<?xml version="1.0" encoding="utf-8"?>
<!-- Generator: Adobe Illustrator 24.3.0, SVG Export Plug-In . SVG Version: 6.00 Build 0)  -->
<svg version="1.1" id="Layer_1" xmlns="http://www.w3.org/2000/svg" xmlns:xlink="http://www.w3.org/1999/xlink" x="0px" y="0px"
	 viewBox="0 0 81.4 81.5" style="enable-background:new 0 0 81.4 81.5;" xml:space="preserve">
<style type="text/css">
	.st0{fill:#FFFFFF;stroke:#FFFFFF;stroke-miterlimit:10;}
</style>
<g id="Layer_2_1_">
	<g id="Layer_1-2">
		<line class="st0" x1="9.5" y1="31.3" x2="60.2" y2="7.4"/>
		<line class="st0" x1="43.8" y1="55.7" x2="60.3" y2="7.3"/>
		<line class="st0" x1="34.2" y1="60.3" x2="37.8" y2="50"/>
		<line class="st0" x1="37.9" y1="50.4" x2="24.2" y2="30.7"/>
		<line class="st0" x1="53.9" y1="1.4" x2="60.5" y2="7.7"/>
		<line class="st0" x1="5.7" y1="24.5" x2="54.4" y2="1.5"/>
		<line class="st0" x1="6" y1="39.8" x2="49.6" y2="18.1"/>
		<line class="st0" x1="49.4" y1="18.4" x2="40.6" y2="42"/>
		<line class="st0" x1="30.3" y1="27.7" x2="40.6" y2="41.5"/>
		<line class="st0" x1="39.2" y1="23.3" x2="35.4" y2="34.5"/>
		<line class="st0" x1="18" y1="33.8" x2="29.6" y2="49.9"/>
		<line class="st0" x1="29.6" y1="49.9" x2="37.8" y2="50"/>
		<line class="st0" x1="29.6" y1="49.9" x2="21.5" y2="72.9"/>
		<line class="st0" x1="21.6" y1="72.7" x2="72.8" y2="48.7"/>
		<line class="st0" x1="75.9" y1="40.9" x2="72.8" y2="48.7"/>
		<line class="st0" x1="21.4" y1="72.4" x2="28" y2="78.8"/>
		<line class="st0" x1="76.8" y1="55.1" x2="72.8" y2="48.7"/>
		<line class="st0" x1="79.3" y1="47.3" x2="76.6" y2="55.4"/>
		<line class="st0" x1="75.9" y1="40.8" x2="79.3" y2="47.7"/>
		<line class="st0" x1="33.9" y1="60.6" x2="76.4" y2="40.6"/>
		<line class="st0" x1="27.5" y1="78.7" x2="76.8" y2="55.1"/>
		<line class="st0" x1="5.7" y1="24.5" x2="9.5" y2="31.3"/>
		<line class="st0" x1="5.9" y1="24.2" x2="2.2" y2="33.5"/>
		<line class="st0" x1="2.2" y1="33" x2="6.5" y2="39.6"/>
		<line class="st0" x1="9.5" y1="31.3" x2="6.4" y2="39.5"/>
	</g>
</g>
</svg>
