<svg xmlns="http://www.w3.org/2000/svg" viewBox="0 0 81.38 81.53"><defs><style>.cls-1{fill:none;stroke:#666161;stroke-miterlimit:10;stroke-width:0.5px;}</style></defs><g id="Layer_2" data-name="Layer 2"><g id="Layer_1-2" data-name="Layer 1"><line class="cls-1" x1="7.93" y1="31.54" x2="61.12" y2="6.47"/><line class="cls-1" x1="43.87" y1="57.16" x2="61.17" y2="6.38"/><line class="cls-1" x1="33.79" y1="61.92" x2="37.53" y2="51.1"/><line class="cls-1" x1="37.58" y1="51.15" x2="23.29" y2="30.94"/><line class="cls-1" x1="54.83" y1="0.18" x2="61.12" y2="6.47"/><line class="cls-1" x1="3.91" y1="24.37" x2="54.97" y2="0.23"/><line class="cls-1" x1="4.6" y1="40.14" x2="49.74" y2="17.85"/><line class="cls-1" x1="49.65" y1="17.89" x2="40.49" y2="42.36"/><line class="cls-1" x1="29.72" y1="27.74" x2="40.49" y2="42.27"/><line class="cls-1" x1="39.06" y1="23.12" x2="35.08" y2="34.87"/><line class="cls-1" x1="16.81" y1="34.13" x2="28.93" y2="51.01"/><line class="cls-1" x1="28.93" y1="51.01" x2="37.53" y2="51.1"/><line class="cls-1" x1="28.93" y1="51.01" x2="20.51" y2="75.15"/><line class="cls-1" x1="20.56" y1="75.01" x2="74.3" y2="49.76"/><line class="cls-1" x1="77.58" y1="41.57" x2="74.3" y2="49.76"/><line class="cls-1" x1="20.56" y1="75.01" x2="26.9" y2="81.25"/><line class="cls-1" x1="78.55" y1="56.46" x2="74.3" y2="49.76"/><line class="cls-1" x1="81.14" y1="48.32" x2="78.55" y2="56.56"/><line class="cls-1" x1="77.54" y1="41.48" x2="81.14" y2="48.42"/><line class="cls-1" x1="33.83" y1="61.83" x2="77.58" y2="41.57"/><line class="cls-1" x1="26.76" y1="81.3" x2="78.55" y2="56.46"/><line class="cls-1" x1="3.91" y1="24.37" x2="7.93" y2="31.54"/><line class="cls-1" x1="3.96" y1="24.28" x2="0.26" y2="33.39"/><line class="cls-1" x1="0.21" y1="33.34" x2="4.7" y2="40.23"/><line class="cls-1" x1="7.93" y1="31.54" x2="4.6" y2="40.14"/></g></g></svg>